M48
; DRILL file KiCad 10.0.5 date 2026-09-30T18:34:01
; FORMAT={-:-/ absolute / metric / decimal}
; #@! TF.CreationDate,2026-09-30T18:34:01+09:30
; #@! TF.GenerationSoftware,Kicad,Pcbnew,10.0.5
; #@! TF.FileFunction,MixedPlating,1,2
FMAT,2
METRIC
; #@! TA.AperFunction,Plated,PTH,ViaDrill
T1C0.300
; #@! TA.AperFunction,Plated,PTH,ComponentDrill
T2C0.550
; #@! TA.AperFunction,Plated,PTH,ComponentDrill
T3C0.850
; #@! TA.AperFunction,Plated,PTH,ComponentDrill
T4C1.000
; #@! TA.AperFunction,NonPlated,NPTH,ComponentDrill
T5C0.800
; #@! TA.AperFunction,NonPlated,NPTH,ComponentDrill
T6C0.900
; #@! TA.AperFunction,NonPlated,NPTH,ComponentDrill
T7C2.200
%
G90
G05
T1
X101.5Y-45.25
X102.0Y-42.0
X102.0Y-43.5
X102.0Y-52.25
X103.25Y-52.75
X103.5Y-46.5
X104.0Y-54.75
X104.5Y-37.5
X105.25Y-47.0
X105.3Y-49.7
X107.25Y-45.5
X109.75Y-49.9
X110.0Y-59.0
X110.75Y-39.95
X111.75Y-55.5
X111.75Y-59.0
X113.575Y-56.094
X114.725Y-55.265
X114.875Y-56.0
X118.5Y-36.0
X120.0Y-46.75
X123.75Y-57.25
X124.0Y-52.5
X124.0Y-53.25
X124.5Y-57.25
X130.0Y-58.25
X131.705Y-46.705
X133.25Y-55.75
T4
X104.38Y-35.0
X105.75Y-61.75
X106.92Y-35.0
X108.29Y-61.75
X109.46Y-35.0
X110.83Y-61.75
X112.0Y-35.0
X113.37Y-61.75
X121.75Y-34.75
X124.29Y-34.75
X126.83Y-34.75
X129.37Y-34.75
T5
X135.75Y-45.505
X135.75Y-50.505
T6
X97.99Y-41.5
X97.99Y-44.5
T7
X99.0Y-35.5
X99.0Y-61.0
X137.25Y-61.0
X137.5Y-35.5
T2
G00X138.175Y-44.13
M15
G01X138.825Y-44.13
M16
G05
G00X138.175Y-51.88
M15
G01X138.825Y-51.88
M16
G05
T3
G00X134.425Y-44.28
M15
G01X134.975Y-44.28
M16
G05
G00X134.425Y-51.73
M15
G01X134.975Y-51.73
M16
G05
M30
