%TF.GenerationSoftware,KiCad,Pcbnew,10.0.5*%
%TF.CreationDate,2026-09-30T18:34:07+09:30*%
%TF.ProjectId,stm32 PCB design,73746d33-3220-4504-9342-206465736967,rev?*%
%TF.SameCoordinates,Original*%
%TF.FileFunction,Legend,Top*%
%TF.FilePolarity,Positive*%
%FSLAX46Y46*%
G04 Gerber Fmt 4.6, Leading zero omitted, Abs format (unit mm)*
G04 Created by KiCad (PCBNEW 10.0.5) date 2026-09-30 18:34:07*
%MOMM*%
%LPD*%
G01*
G04 APERTURE LIST*
%ADD10C,0.100000*%
%ADD11C,0.150000*%
%ADD12C,0.075000*%
%ADD13C,0.120000*%
G04 APERTURE END LIST*
D10*
X96637217Y-48348609D02*
X96780074Y-48396228D01*
X96780074Y-48396228D02*
X96827693Y-48443847D01*
X96827693Y-48443847D02*
X96875312Y-48539085D01*
X96875312Y-48539085D02*
X96875312Y-48681942D01*
X96875312Y-48681942D02*
X96827693Y-48777180D01*
X96827693Y-48777180D02*
X96780074Y-48824800D01*
X96780074Y-48824800D02*
X96684836Y-48872419D01*
X96684836Y-48872419D02*
X96303884Y-48872419D01*
X96303884Y-48872419D02*
X96303884Y-47872419D01*
X96303884Y-47872419D02*
X96637217Y-47872419D01*
X96637217Y-47872419D02*
X96732455Y-47920038D01*
X96732455Y-47920038D02*
X96780074Y-47967657D01*
X96780074Y-47967657D02*
X96827693Y-48062895D01*
X96827693Y-48062895D02*
X96827693Y-48158133D01*
X96827693Y-48158133D02*
X96780074Y-48253371D01*
X96780074Y-48253371D02*
X96732455Y-48300990D01*
X96732455Y-48300990D02*
X96637217Y-48348609D01*
X96637217Y-48348609D02*
X96303884Y-48348609D01*
X97494360Y-47872419D02*
X97684836Y-47872419D01*
X97684836Y-47872419D02*
X97780074Y-47920038D01*
X97780074Y-47920038D02*
X97875312Y-48015276D01*
X97875312Y-48015276D02*
X97922931Y-48205752D01*
X97922931Y-48205752D02*
X97922931Y-48539085D01*
X97922931Y-48539085D02*
X97875312Y-48729561D01*
X97875312Y-48729561D02*
X97780074Y-48824800D01*
X97780074Y-48824800D02*
X97684836Y-48872419D01*
X97684836Y-48872419D02*
X97494360Y-48872419D01*
X97494360Y-48872419D02*
X97399122Y-48824800D01*
X97399122Y-48824800D02*
X97303884Y-48729561D01*
X97303884Y-48729561D02*
X97256265Y-48539085D01*
X97256265Y-48539085D02*
X97256265Y-48205752D01*
X97256265Y-48205752D02*
X97303884Y-48015276D01*
X97303884Y-48015276D02*
X97399122Y-47920038D01*
X97399122Y-47920038D02*
X97494360Y-47872419D01*
X98541979Y-47872419D02*
X98732455Y-47872419D01*
X98732455Y-47872419D02*
X98827693Y-47920038D01*
X98827693Y-47920038D02*
X98922931Y-48015276D01*
X98922931Y-48015276D02*
X98970550Y-48205752D01*
X98970550Y-48205752D02*
X98970550Y-48539085D01*
X98970550Y-48539085D02*
X98922931Y-48729561D01*
X98922931Y-48729561D02*
X98827693Y-48824800D01*
X98827693Y-48824800D02*
X98732455Y-48872419D01*
X98732455Y-48872419D02*
X98541979Y-48872419D01*
X98541979Y-48872419D02*
X98446741Y-48824800D01*
X98446741Y-48824800D02*
X98351503Y-48729561D01*
X98351503Y-48729561D02*
X98303884Y-48539085D01*
X98303884Y-48539085D02*
X98303884Y-48205752D01*
X98303884Y-48205752D02*
X98351503Y-48015276D01*
X98351503Y-48015276D02*
X98446741Y-47920038D01*
X98446741Y-47920038D02*
X98541979Y-47872419D01*
X99256265Y-47872419D02*
X99827693Y-47872419D01*
X99541979Y-48872419D02*
X99541979Y-47872419D01*
X101553884Y-63002419D02*
X101553884Y-62002419D01*
X101982455Y-62097657D02*
X102030074Y-62050038D01*
X102030074Y-62050038D02*
X102125312Y-62002419D01*
X102125312Y-62002419D02*
X102363407Y-62002419D01*
X102363407Y-62002419D02*
X102458645Y-62050038D01*
X102458645Y-62050038D02*
X102506264Y-62097657D01*
X102506264Y-62097657D02*
X102553883Y-62192895D01*
X102553883Y-62192895D02*
X102553883Y-62288133D01*
X102553883Y-62288133D02*
X102506264Y-62430990D01*
X102506264Y-62430990D02*
X101934836Y-63002419D01*
X101934836Y-63002419D02*
X102553883Y-63002419D01*
X103553883Y-62907180D02*
X103506264Y-62954800D01*
X103506264Y-62954800D02*
X103363407Y-63002419D01*
X103363407Y-63002419D02*
X103268169Y-63002419D01*
X103268169Y-63002419D02*
X103125312Y-62954800D01*
X103125312Y-62954800D02*
X103030074Y-62859561D01*
X103030074Y-62859561D02*
X102982455Y-62764323D01*
X102982455Y-62764323D02*
X102934836Y-62573847D01*
X102934836Y-62573847D02*
X102934836Y-62430990D01*
X102934836Y-62430990D02*
X102982455Y-62240514D01*
X102982455Y-62240514D02*
X103030074Y-62145276D01*
X103030074Y-62145276D02*
X103125312Y-62050038D01*
X103125312Y-62050038D02*
X103268169Y-62002419D01*
X103268169Y-62002419D02*
X103363407Y-62002419D01*
X103363407Y-62002419D02*
X103506264Y-62050038D01*
X103506264Y-62050038D02*
X103553883Y-62097657D01*
X108053884Y-36372419D02*
X108053884Y-37181942D01*
X108053884Y-37181942D02*
X108101503Y-37277180D01*
X108101503Y-37277180D02*
X108149122Y-37324800D01*
X108149122Y-37324800D02*
X108244360Y-37372419D01*
X108244360Y-37372419D02*
X108434836Y-37372419D01*
X108434836Y-37372419D02*
X108530074Y-37324800D01*
X108530074Y-37324800D02*
X108577693Y-37277180D01*
X108577693Y-37277180D02*
X108625312Y-37181942D01*
X108625312Y-37181942D02*
X108625312Y-36372419D01*
X109053884Y-37086704D02*
X109530074Y-37086704D01*
X108958646Y-37372419D02*
X109291979Y-36372419D01*
X109291979Y-36372419D02*
X109625312Y-37372419D01*
X110530074Y-37372419D02*
X110196741Y-36896228D01*
X109958646Y-37372419D02*
X109958646Y-36372419D01*
X109958646Y-36372419D02*
X110339598Y-36372419D01*
X110339598Y-36372419D02*
X110434836Y-36420038D01*
X110434836Y-36420038D02*
X110482455Y-36467657D01*
X110482455Y-36467657D02*
X110530074Y-36562895D01*
X110530074Y-36562895D02*
X110530074Y-36705752D01*
X110530074Y-36705752D02*
X110482455Y-36800990D01*
X110482455Y-36800990D02*
X110434836Y-36848609D01*
X110434836Y-36848609D02*
X110339598Y-36896228D01*
X110339598Y-36896228D02*
X109958646Y-36896228D01*
X110815789Y-36372419D02*
X111387217Y-36372419D01*
X111101503Y-37372419D02*
X111101503Y-36372419D01*
X123506265Y-37324800D02*
X123649122Y-37372419D01*
X123649122Y-37372419D02*
X123887217Y-37372419D01*
X123887217Y-37372419D02*
X123982455Y-37324800D01*
X123982455Y-37324800D02*
X124030074Y-37277180D01*
X124030074Y-37277180D02*
X124077693Y-37181942D01*
X124077693Y-37181942D02*
X124077693Y-37086704D01*
X124077693Y-37086704D02*
X124030074Y-36991466D01*
X124030074Y-36991466D02*
X123982455Y-36943847D01*
X123982455Y-36943847D02*
X123887217Y-36896228D01*
X123887217Y-36896228D02*
X123696741Y-36848609D01*
X123696741Y-36848609D02*
X123601503Y-36800990D01*
X123601503Y-36800990D02*
X123553884Y-36753371D01*
X123553884Y-36753371D02*
X123506265Y-36658133D01*
X123506265Y-36658133D02*
X123506265Y-36562895D01*
X123506265Y-36562895D02*
X123553884Y-36467657D01*
X123553884Y-36467657D02*
X123601503Y-36420038D01*
X123601503Y-36420038D02*
X123696741Y-36372419D01*
X123696741Y-36372419D02*
X123934836Y-36372419D01*
X123934836Y-36372419D02*
X124077693Y-36420038D01*
X124411027Y-36372419D02*
X124649122Y-37372419D01*
X124649122Y-37372419D02*
X124839598Y-36658133D01*
X124839598Y-36658133D02*
X125030074Y-37372419D01*
X125030074Y-37372419D02*
X125268170Y-36372419D01*
X125649122Y-37372419D02*
X125649122Y-36372419D01*
X125649122Y-36372419D02*
X125887217Y-36372419D01*
X125887217Y-36372419D02*
X126030074Y-36420038D01*
X126030074Y-36420038D02*
X126125312Y-36515276D01*
X126125312Y-36515276D02*
X126172931Y-36610514D01*
X126172931Y-36610514D02*
X126220550Y-36800990D01*
X126220550Y-36800990D02*
X126220550Y-36943847D01*
X126220550Y-36943847D02*
X126172931Y-37134323D01*
X126172931Y-37134323D02*
X126125312Y-37229561D01*
X126125312Y-37229561D02*
X126030074Y-37324800D01*
X126030074Y-37324800D02*
X125887217Y-37372419D01*
X125887217Y-37372419D02*
X125649122Y-37372419D01*
X137303884Y-41622419D02*
X137303884Y-42431942D01*
X137303884Y-42431942D02*
X137351503Y-42527180D01*
X137351503Y-42527180D02*
X137399122Y-42574800D01*
X137399122Y-42574800D02*
X137494360Y-42622419D01*
X137494360Y-42622419D02*
X137684836Y-42622419D01*
X137684836Y-42622419D02*
X137780074Y-42574800D01*
X137780074Y-42574800D02*
X137827693Y-42527180D01*
X137827693Y-42527180D02*
X137875312Y-42431942D01*
X137875312Y-42431942D02*
X137875312Y-41622419D01*
X138303884Y-42574800D02*
X138446741Y-42622419D01*
X138446741Y-42622419D02*
X138684836Y-42622419D01*
X138684836Y-42622419D02*
X138780074Y-42574800D01*
X138780074Y-42574800D02*
X138827693Y-42527180D01*
X138827693Y-42527180D02*
X138875312Y-42431942D01*
X138875312Y-42431942D02*
X138875312Y-42336704D01*
X138875312Y-42336704D02*
X138827693Y-42241466D01*
X138827693Y-42241466D02*
X138780074Y-42193847D01*
X138780074Y-42193847D02*
X138684836Y-42146228D01*
X138684836Y-42146228D02*
X138494360Y-42098609D01*
X138494360Y-42098609D02*
X138399122Y-42050990D01*
X138399122Y-42050990D02*
X138351503Y-42003371D01*
X138351503Y-42003371D02*
X138303884Y-41908133D01*
X138303884Y-41908133D02*
X138303884Y-41812895D01*
X138303884Y-41812895D02*
X138351503Y-41717657D01*
X138351503Y-41717657D02*
X138399122Y-41670038D01*
X138399122Y-41670038D02*
X138494360Y-41622419D01*
X138494360Y-41622419D02*
X138732455Y-41622419D01*
X138732455Y-41622419D02*
X138875312Y-41670038D01*
X139637217Y-42098609D02*
X139780074Y-42146228D01*
X139780074Y-42146228D02*
X139827693Y-42193847D01*
X139827693Y-42193847D02*
X139875312Y-42289085D01*
X139875312Y-42289085D02*
X139875312Y-42431942D01*
X139875312Y-42431942D02*
X139827693Y-42527180D01*
X139827693Y-42527180D02*
X139780074Y-42574800D01*
X139780074Y-42574800D02*
X139684836Y-42622419D01*
X139684836Y-42622419D02*
X139303884Y-42622419D01*
X139303884Y-42622419D02*
X139303884Y-41622419D01*
X139303884Y-41622419D02*
X139637217Y-41622419D01*
X139637217Y-41622419D02*
X139732455Y-41670038D01*
X139732455Y-41670038D02*
X139780074Y-41717657D01*
X139780074Y-41717657D02*
X139827693Y-41812895D01*
X139827693Y-41812895D02*
X139827693Y-41908133D01*
X139827693Y-41908133D02*
X139780074Y-42003371D01*
X139780074Y-42003371D02*
X139732455Y-42050990D01*
X139732455Y-42050990D02*
X139637217Y-42098609D01*
X139637217Y-42098609D02*
X139303884Y-42098609D01*
D11*
X118683333Y-53109580D02*
X118635714Y-53157200D01*
X118635714Y-53157200D02*
X118492857Y-53204819D01*
X118492857Y-53204819D02*
X118397619Y-53204819D01*
X118397619Y-53204819D02*
X118254762Y-53157200D01*
X118254762Y-53157200D02*
X118159524Y-53061961D01*
X118159524Y-53061961D02*
X118111905Y-52966723D01*
X118111905Y-52966723D02*
X118064286Y-52776247D01*
X118064286Y-52776247D02*
X118064286Y-52633390D01*
X118064286Y-52633390D02*
X118111905Y-52442914D01*
X118111905Y-52442914D02*
X118159524Y-52347676D01*
X118159524Y-52347676D02*
X118254762Y-52252438D01*
X118254762Y-52252438D02*
X118397619Y-52204819D01*
X118397619Y-52204819D02*
X118492857Y-52204819D01*
X118492857Y-52204819D02*
X118635714Y-52252438D01*
X118635714Y-52252438D02*
X118683333Y-52300057D01*
X119635714Y-53204819D02*
X119064286Y-53204819D01*
X119350000Y-53204819D02*
X119350000Y-52204819D01*
X119350000Y-52204819D02*
X119254762Y-52347676D01*
X119254762Y-52347676D02*
X119159524Y-52442914D01*
X119159524Y-52442914D02*
X119064286Y-52490533D01*
X128583333Y-57159580D02*
X128535714Y-57207200D01*
X128535714Y-57207200D02*
X128392857Y-57254819D01*
X128392857Y-57254819D02*
X128297619Y-57254819D01*
X128297619Y-57254819D02*
X128154762Y-57207200D01*
X128154762Y-57207200D02*
X128059524Y-57111961D01*
X128059524Y-57111961D02*
X128011905Y-57016723D01*
X128011905Y-57016723D02*
X127964286Y-56826247D01*
X127964286Y-56826247D02*
X127964286Y-56683390D01*
X127964286Y-56683390D02*
X128011905Y-56492914D01*
X128011905Y-56492914D02*
X128059524Y-56397676D01*
X128059524Y-56397676D02*
X128154762Y-56302438D01*
X128154762Y-56302438D02*
X128297619Y-56254819D01*
X128297619Y-56254819D02*
X128392857Y-56254819D01*
X128392857Y-56254819D02*
X128535714Y-56302438D01*
X128535714Y-56302438D02*
X128583333Y-56350057D01*
X128964286Y-56350057D02*
X129011905Y-56302438D01*
X129011905Y-56302438D02*
X129107143Y-56254819D01*
X129107143Y-56254819D02*
X129345238Y-56254819D01*
X129345238Y-56254819D02*
X129440476Y-56302438D01*
X129440476Y-56302438D02*
X129488095Y-56350057D01*
X129488095Y-56350057D02*
X129535714Y-56445295D01*
X129535714Y-56445295D02*
X129535714Y-56540533D01*
X129535714Y-56540533D02*
X129488095Y-56683390D01*
X129488095Y-56683390D02*
X128916667Y-57254819D01*
X128916667Y-57254819D02*
X129535714Y-57254819D01*
X107333333Y-41859580D02*
X107285714Y-41907200D01*
X107285714Y-41907200D02*
X107142857Y-41954819D01*
X107142857Y-41954819D02*
X107047619Y-41954819D01*
X107047619Y-41954819D02*
X106904762Y-41907200D01*
X106904762Y-41907200D02*
X106809524Y-41811961D01*
X106809524Y-41811961D02*
X106761905Y-41716723D01*
X106761905Y-41716723D02*
X106714286Y-41526247D01*
X106714286Y-41526247D02*
X106714286Y-41383390D01*
X106714286Y-41383390D02*
X106761905Y-41192914D01*
X106761905Y-41192914D02*
X106809524Y-41097676D01*
X106809524Y-41097676D02*
X106904762Y-41002438D01*
X106904762Y-41002438D02*
X107047619Y-40954819D01*
X107047619Y-40954819D02*
X107142857Y-40954819D01*
X107142857Y-40954819D02*
X107285714Y-41002438D01*
X107285714Y-41002438D02*
X107333333Y-41050057D01*
X107666667Y-40954819D02*
X108285714Y-40954819D01*
X108285714Y-40954819D02*
X107952381Y-41335771D01*
X107952381Y-41335771D02*
X108095238Y-41335771D01*
X108095238Y-41335771D02*
X108190476Y-41383390D01*
X108190476Y-41383390D02*
X108238095Y-41431009D01*
X108238095Y-41431009D02*
X108285714Y-41526247D01*
X108285714Y-41526247D02*
X108285714Y-41764342D01*
X108285714Y-41764342D02*
X108238095Y-41859580D01*
X108238095Y-41859580D02*
X108190476Y-41907200D01*
X108190476Y-41907200D02*
X108095238Y-41954819D01*
X108095238Y-41954819D02*
X107809524Y-41954819D01*
X107809524Y-41954819D02*
X107714286Y-41907200D01*
X107714286Y-41907200D02*
X107666667Y-41859580D01*
X122833333Y-45854819D02*
X122500000Y-45378628D01*
X122261905Y-45854819D02*
X122261905Y-44854819D01*
X122261905Y-44854819D02*
X122642857Y-44854819D01*
X122642857Y-44854819D02*
X122738095Y-44902438D01*
X122738095Y-44902438D02*
X122785714Y-44950057D01*
X122785714Y-44950057D02*
X122833333Y-45045295D01*
X122833333Y-45045295D02*
X122833333Y-45188152D01*
X122833333Y-45188152D02*
X122785714Y-45283390D01*
X122785714Y-45283390D02*
X122738095Y-45331009D01*
X122738095Y-45331009D02*
X122642857Y-45378628D01*
X122642857Y-45378628D02*
X122261905Y-45378628D01*
X123166667Y-44854819D02*
X123785714Y-44854819D01*
X123785714Y-44854819D02*
X123452381Y-45235771D01*
X123452381Y-45235771D02*
X123595238Y-45235771D01*
X123595238Y-45235771D02*
X123690476Y-45283390D01*
X123690476Y-45283390D02*
X123738095Y-45331009D01*
X123738095Y-45331009D02*
X123785714Y-45426247D01*
X123785714Y-45426247D02*
X123785714Y-45664342D01*
X123785714Y-45664342D02*
X123738095Y-45759580D01*
X123738095Y-45759580D02*
X123690476Y-45807200D01*
X123690476Y-45807200D02*
X123595238Y-45854819D01*
X123595238Y-45854819D02*
X123309524Y-45854819D01*
X123309524Y-45854819D02*
X123214286Y-45807200D01*
X123214286Y-45807200D02*
X123166667Y-45759580D01*
X132504819Y-48338333D02*
X133219104Y-48338333D01*
X133219104Y-48338333D02*
X133361961Y-48385952D01*
X133361961Y-48385952D02*
X133457200Y-48481190D01*
X133457200Y-48481190D02*
X133504819Y-48624047D01*
X133504819Y-48624047D02*
X133504819Y-48719285D01*
X133504819Y-47338333D02*
X133504819Y-47909761D01*
X133504819Y-47624047D02*
X132504819Y-47624047D01*
X132504819Y-47624047D02*
X132647676Y-47719285D01*
X132647676Y-47719285D02*
X132742914Y-47814523D01*
X132742914Y-47814523D02*
X132790533Y-47909761D01*
X104083333Y-44184819D02*
X103750000Y-43708628D01*
X103511905Y-44184819D02*
X103511905Y-43184819D01*
X103511905Y-43184819D02*
X103892857Y-43184819D01*
X103892857Y-43184819D02*
X103988095Y-43232438D01*
X103988095Y-43232438D02*
X104035714Y-43280057D01*
X104035714Y-43280057D02*
X104083333Y-43375295D01*
X104083333Y-43375295D02*
X104083333Y-43518152D01*
X104083333Y-43518152D02*
X104035714Y-43613390D01*
X104035714Y-43613390D02*
X103988095Y-43661009D01*
X103988095Y-43661009D02*
X103892857Y-43708628D01*
X103892857Y-43708628D02*
X103511905Y-43708628D01*
X104464286Y-43280057D02*
X104511905Y-43232438D01*
X104511905Y-43232438D02*
X104607143Y-43184819D01*
X104607143Y-43184819D02*
X104845238Y-43184819D01*
X104845238Y-43184819D02*
X104940476Y-43232438D01*
X104940476Y-43232438D02*
X104988095Y-43280057D01*
X104988095Y-43280057D02*
X105035714Y-43375295D01*
X105035714Y-43375295D02*
X105035714Y-43470533D01*
X105035714Y-43470533D02*
X104988095Y-43613390D01*
X104988095Y-43613390D02*
X104416667Y-44184819D01*
X104416667Y-44184819D02*
X105035714Y-44184819D01*
X131261905Y-62654819D02*
X131261905Y-61654819D01*
X131261905Y-61654819D02*
X131500000Y-61654819D01*
X131500000Y-61654819D02*
X131642857Y-61702438D01*
X131642857Y-61702438D02*
X131738095Y-61797676D01*
X131738095Y-61797676D02*
X131785714Y-61892914D01*
X131785714Y-61892914D02*
X131833333Y-62083390D01*
X131833333Y-62083390D02*
X131833333Y-62226247D01*
X131833333Y-62226247D02*
X131785714Y-62416723D01*
X131785714Y-62416723D02*
X131738095Y-62511961D01*
X131738095Y-62511961D02*
X131642857Y-62607200D01*
X131642857Y-62607200D02*
X131500000Y-62654819D01*
X131500000Y-62654819D02*
X131261905Y-62654819D01*
X132785714Y-62654819D02*
X132214286Y-62654819D01*
X132500000Y-62654819D02*
X132500000Y-61654819D01*
X132500000Y-61654819D02*
X132404762Y-61797676D01*
X132404762Y-61797676D02*
X132309524Y-61892914D01*
X132309524Y-61892914D02*
X132214286Y-61940533D01*
X131204819Y-35083333D02*
X131919104Y-35083333D01*
X131919104Y-35083333D02*
X132061961Y-35130952D01*
X132061961Y-35130952D02*
X132157200Y-35226190D01*
X132157200Y-35226190D02*
X132204819Y-35369047D01*
X132204819Y-35369047D02*
X132204819Y-35464285D01*
X131300057Y-34654761D02*
X131252438Y-34607142D01*
X131252438Y-34607142D02*
X131204819Y-34511904D01*
X131204819Y-34511904D02*
X131204819Y-34273809D01*
X131204819Y-34273809D02*
X131252438Y-34178571D01*
X131252438Y-34178571D02*
X131300057Y-34130952D01*
X131300057Y-34130952D02*
X131395295Y-34083333D01*
X131395295Y-34083333D02*
X131490533Y-34083333D01*
X131490533Y-34083333D02*
X131633390Y-34130952D01*
X131633390Y-34130952D02*
X132204819Y-34702380D01*
X132204819Y-34702380D02*
X132204819Y-34083333D01*
X113843333Y-57284819D02*
X113510000Y-56808628D01*
X113271905Y-57284819D02*
X113271905Y-56284819D01*
X113271905Y-56284819D02*
X113652857Y-56284819D01*
X113652857Y-56284819D02*
X113748095Y-56332438D01*
X113748095Y-56332438D02*
X113795714Y-56380057D01*
X113795714Y-56380057D02*
X113843333Y-56475295D01*
X113843333Y-56475295D02*
X113843333Y-56618152D01*
X113843333Y-56618152D02*
X113795714Y-56713390D01*
X113795714Y-56713390D02*
X113748095Y-56761009D01*
X113748095Y-56761009D02*
X113652857Y-56808628D01*
X113652857Y-56808628D02*
X113271905Y-56808628D01*
X114748095Y-56284819D02*
X114271905Y-56284819D01*
X114271905Y-56284819D02*
X114224286Y-56761009D01*
X114224286Y-56761009D02*
X114271905Y-56713390D01*
X114271905Y-56713390D02*
X114367143Y-56665771D01*
X114367143Y-56665771D02*
X114605238Y-56665771D01*
X114605238Y-56665771D02*
X114700476Y-56713390D01*
X114700476Y-56713390D02*
X114748095Y-56761009D01*
X114748095Y-56761009D02*
X114795714Y-56856247D01*
X114795714Y-56856247D02*
X114795714Y-57094342D01*
X114795714Y-57094342D02*
X114748095Y-57189580D01*
X114748095Y-57189580D02*
X114700476Y-57237200D01*
X114700476Y-57237200D02*
X114605238Y-57284819D01*
X114605238Y-57284819D02*
X114367143Y-57284819D01*
X114367143Y-57284819D02*
X114271905Y-57237200D01*
X114271905Y-57237200D02*
X114224286Y-57189580D01*
X131583333Y-54654819D02*
X131250000Y-54178628D01*
X131011905Y-54654819D02*
X131011905Y-53654819D01*
X131011905Y-53654819D02*
X131392857Y-53654819D01*
X131392857Y-53654819D02*
X131488095Y-53702438D01*
X131488095Y-53702438D02*
X131535714Y-53750057D01*
X131535714Y-53750057D02*
X131583333Y-53845295D01*
X131583333Y-53845295D02*
X131583333Y-53988152D01*
X131583333Y-53988152D02*
X131535714Y-54083390D01*
X131535714Y-54083390D02*
X131488095Y-54131009D01*
X131488095Y-54131009D02*
X131392857Y-54178628D01*
X131392857Y-54178628D02*
X131011905Y-54178628D01*
X132535714Y-54654819D02*
X131964286Y-54654819D01*
X132250000Y-54654819D02*
X132250000Y-53654819D01*
X132250000Y-53654819D02*
X132154762Y-53797676D01*
X132154762Y-53797676D02*
X132059524Y-53892914D01*
X132059524Y-53892914D02*
X131964286Y-53940533D01*
X109083333Y-58454819D02*
X108750000Y-57978628D01*
X108511905Y-58454819D02*
X108511905Y-57454819D01*
X108511905Y-57454819D02*
X108892857Y-57454819D01*
X108892857Y-57454819D02*
X108988095Y-57502438D01*
X108988095Y-57502438D02*
X109035714Y-57550057D01*
X109035714Y-57550057D02*
X109083333Y-57645295D01*
X109083333Y-57645295D02*
X109083333Y-57788152D01*
X109083333Y-57788152D02*
X109035714Y-57883390D01*
X109035714Y-57883390D02*
X108988095Y-57931009D01*
X108988095Y-57931009D02*
X108892857Y-57978628D01*
X108892857Y-57978628D02*
X108511905Y-57978628D01*
X109940476Y-57788152D02*
X109940476Y-58454819D01*
X109702381Y-57407200D02*
X109464286Y-58121485D01*
X109464286Y-58121485D02*
X110083333Y-58121485D01*
D12*
X105950000Y-52306314D02*
X105935714Y-52320600D01*
X105935714Y-52320600D02*
X105892857Y-52334885D01*
X105892857Y-52334885D02*
X105864285Y-52334885D01*
X105864285Y-52334885D02*
X105821428Y-52320600D01*
X105821428Y-52320600D02*
X105792857Y-52292028D01*
X105792857Y-52292028D02*
X105778571Y-52263457D01*
X105778571Y-52263457D02*
X105764285Y-52206314D01*
X105764285Y-52206314D02*
X105764285Y-52163457D01*
X105764285Y-52163457D02*
X105778571Y-52106314D01*
X105778571Y-52106314D02*
X105792857Y-52077742D01*
X105792857Y-52077742D02*
X105821428Y-52049171D01*
X105821428Y-52049171D02*
X105864285Y-52034885D01*
X105864285Y-52034885D02*
X105892857Y-52034885D01*
X105892857Y-52034885D02*
X105935714Y-52049171D01*
X105935714Y-52049171D02*
X105950000Y-52063457D01*
X106121428Y-52163457D02*
X106092857Y-52149171D01*
X106092857Y-52149171D02*
X106078571Y-52134885D01*
X106078571Y-52134885D02*
X106064285Y-52106314D01*
X106064285Y-52106314D02*
X106064285Y-52092028D01*
X106064285Y-52092028D02*
X106078571Y-52063457D01*
X106078571Y-52063457D02*
X106092857Y-52049171D01*
X106092857Y-52049171D02*
X106121428Y-52034885D01*
X106121428Y-52034885D02*
X106178571Y-52034885D01*
X106178571Y-52034885D02*
X106207143Y-52049171D01*
X106207143Y-52049171D02*
X106221428Y-52063457D01*
X106221428Y-52063457D02*
X106235714Y-52092028D01*
X106235714Y-52092028D02*
X106235714Y-52106314D01*
X106235714Y-52106314D02*
X106221428Y-52134885D01*
X106221428Y-52134885D02*
X106207143Y-52149171D01*
X106207143Y-52149171D02*
X106178571Y-52163457D01*
X106178571Y-52163457D02*
X106121428Y-52163457D01*
X106121428Y-52163457D02*
X106092857Y-52177742D01*
X106092857Y-52177742D02*
X106078571Y-52192028D01*
X106078571Y-52192028D02*
X106064285Y-52220600D01*
X106064285Y-52220600D02*
X106064285Y-52277742D01*
X106064285Y-52277742D02*
X106078571Y-52306314D01*
X106078571Y-52306314D02*
X106092857Y-52320600D01*
X106092857Y-52320600D02*
X106121428Y-52334885D01*
X106121428Y-52334885D02*
X106178571Y-52334885D01*
X106178571Y-52334885D02*
X106207143Y-52320600D01*
X106207143Y-52320600D02*
X106221428Y-52306314D01*
X106221428Y-52306314D02*
X106235714Y-52277742D01*
X106235714Y-52277742D02*
X106235714Y-52220600D01*
X106235714Y-52220600D02*
X106221428Y-52192028D01*
X106221428Y-52192028D02*
X106207143Y-52177742D01*
X106207143Y-52177742D02*
X106178571Y-52163457D01*
D11*
X101523809Y-53478628D02*
X101523809Y-53954819D01*
X101190476Y-52954819D02*
X101523809Y-53478628D01*
X101523809Y-53478628D02*
X101857142Y-52954819D01*
X102714285Y-53954819D02*
X102142857Y-53954819D01*
X102428571Y-53954819D02*
X102428571Y-52954819D01*
X102428571Y-52954819D02*
X102333333Y-53097676D01*
X102333333Y-53097676D02*
X102238095Y-53192914D01*
X102238095Y-53192914D02*
X102142857Y-53240533D01*
%TO.C,J3*%
D13*
X103000000Y-33620000D02*
X103000000Y-36380000D01*
X110730000Y-33620000D02*
X103000000Y-33620000D01*
X110730000Y-33620000D02*
X110730000Y-36380000D01*
X110730000Y-36380000D02*
X103000000Y-36380000D01*
X112000000Y-33620000D02*
X113380000Y-33620000D01*
X113380000Y-33620000D02*
X113380000Y-35000000D01*
%TO.C,FB1*%
X106040000Y-53874721D02*
X106040000Y-54200279D01*
X107060000Y-53874721D02*
X107060000Y-54200279D01*
%TO.C,U2*%
X118340000Y-57000000D02*
X118340000Y-60760000D01*
X118340000Y-60760000D02*
X119600000Y-60760000D01*
X125160000Y-57000000D02*
X125160000Y-60760000D01*
X125160000Y-60760000D02*
X123900000Y-60760000D01*
X125060000Y-55720000D02*
X125390000Y-55480000D01*
X125390000Y-55960000D01*
X125060000Y-55720000D01*
G36*
X125390000Y-55960000D02*
G01*
X125060000Y-55720000D01*
X125390000Y-55480000D01*
X125390000Y-55960000D01*
G37*
%TO.C,SW2*%
X96590000Y-40150000D02*
X96590000Y-45850000D01*
X97600000Y-46450000D02*
X98390000Y-46450000D01*
X98390000Y-39550000D02*
X97600000Y-39550000D01*
X99440000Y-41400000D02*
X99440000Y-43100000D01*
X99440000Y-44400000D02*
X99440000Y-44600000D01*
%TO.C,C1*%
X121538748Y-52015000D02*
X122061252Y-52015000D01*
X121538748Y-53485000D02*
X122061252Y-53485000D01*
%TO.C,C2*%
X128015000Y-59761252D02*
X128015000Y-59238748D01*
X129485000Y-59761252D02*
X129485000Y-59238748D01*
%TO.C,U1*%
X108890000Y-45390000D02*
X109340000Y-45390000D01*
X108890000Y-45840000D02*
X108890000Y-45390000D01*
X108890000Y-52610000D02*
X108890000Y-52160000D01*
X109340000Y-52610000D02*
X108890000Y-52610000D01*
X115660000Y-45390000D02*
X116110000Y-45390000D01*
X116110000Y-45390000D02*
X116110000Y-45840000D01*
X116110000Y-52160000D02*
X116110000Y-52610000D01*
X116110000Y-52610000D02*
X115660000Y-52610000D01*
X108250000Y-45840000D02*
X107910000Y-45370000D01*
X108590000Y-45370000D01*
X108250000Y-45840000D01*
G36*
X108250000Y-45840000D02*
G01*
X107910000Y-45370000D01*
X108590000Y-45370000D01*
X108250000Y-45840000D01*
G37*
%TO.C,C3*%
X109834420Y-40990000D02*
X110115580Y-40990000D01*
X109834420Y-42010000D02*
X110115580Y-42010000D01*
%TO.C,R3*%
X122620000Y-46856359D02*
X122620000Y-47163641D01*
X123380000Y-46856359D02*
X123380000Y-47163641D01*
%TO.C,J1*%
X133725000Y-49080000D02*
X133725000Y-49805000D01*
X133725000Y-49805000D02*
X134150000Y-49805000D01*
X134150000Y-46205000D02*
X134150000Y-45205000D01*
X134150000Y-49805000D02*
X134150000Y-50805000D01*
X135900000Y-52155000D02*
X137300000Y-52155000D01*
X137300000Y-43855000D02*
X135900000Y-43855000D01*
X139700000Y-52155000D02*
X139850000Y-52155000D01*
X139850000Y-43855000D02*
X139700000Y-43855000D01*
X139850000Y-44155000D02*
X139850000Y-43855000D01*
X139850000Y-51855000D02*
X140300000Y-51855000D01*
X139850000Y-52155000D02*
X139850000Y-51855000D01*
X140300000Y-44155000D02*
X139850000Y-44155000D01*
%TO.C,R2*%
X103870000Y-42086359D02*
X103870000Y-42393641D01*
X104630000Y-42086359D02*
X104630000Y-42393641D01*
%TO.C,D1*%
X131015000Y-57790000D02*
X131015000Y-60250000D01*
X132485000Y-57790000D02*
X131015000Y-57790000D01*
X132485000Y-60250000D02*
X132485000Y-57790000D01*
%TO.C,J2*%
X120370000Y-33370000D02*
X120370000Y-36130000D01*
X128100000Y-33370000D02*
X120370000Y-33370000D01*
X128100000Y-33370000D02*
X128100000Y-36130000D01*
X128100000Y-36130000D02*
X120370000Y-36130000D01*
X129370000Y-33370000D02*
X130750000Y-33370000D01*
X130750000Y-33370000D02*
X130750000Y-34750000D01*
%TO.C,R5*%
X113856359Y-57620000D02*
X114163641Y-57620000D01*
X113856359Y-58380000D02*
X114163641Y-58380000D01*
%TO.C,R1*%
X131370000Y-56363641D02*
X131370000Y-56056359D01*
X132130000Y-56363641D02*
X132130000Y-56056359D01*
%TO.C,J4*%
X104370000Y-63130000D02*
X104370000Y-61750000D01*
X105750000Y-63130000D02*
X104370000Y-63130000D01*
X107020000Y-60370000D02*
X114750000Y-60370000D01*
X107020000Y-63130000D02*
X107020000Y-60370000D01*
X107020000Y-63130000D02*
X114750000Y-63130000D01*
X114750000Y-63130000D02*
X114750000Y-60370000D01*
%TO.C,R4*%
X111413641Y-57620000D02*
X111106359Y-57620000D01*
X111413641Y-58380000D02*
X111106359Y-58380000D01*
%TO.C,Y1*%
X101140000Y-47540000D02*
X101140000Y-51660000D01*
X104560000Y-47540000D02*
X101140000Y-47540000D01*
%TD*%
M02*
