%TF.GenerationSoftware,KiCad,Pcbnew,10.0.5*%
%TF.CreationDate,2026-09-30T18:34:07+09:30*%
%TF.ProjectId,stm32 PCB design,73746d33-3220-4504-9342-206465736967,rev?*%
%TF.SameCoordinates,Original*%
%TF.FileFunction,Copper,L2,Bot*%
%TF.FilePolarity,Positive*%
%FSLAX46Y46*%
G04 Gerber Fmt 4.6, Leading zero omitted, Abs format (unit mm)*
G04 Created by KiCad (PCBNEW 10.0.5) date 2026-09-30 18:34:07*
%MOMM*%
%LPD*%
G01*
G04 APERTURE LIST*
%TA.AperFunction,ComponentPad*%
%ADD10R,1.700000X1.700000*%
%TD*%
%TA.AperFunction,ComponentPad*%
%ADD11C,1.700000*%
%TD*%
%TA.AperFunction,ComponentPad*%
%ADD12O,1.800000X1.150000*%
%TD*%
%TA.AperFunction,ComponentPad*%
%ADD13O,2.000000X1.450000*%
%TD*%
%TA.AperFunction,ViaPad*%
%ADD14C,0.600000*%
%TD*%
%TA.AperFunction,ViaPad*%
%ADD15C,0.700000*%
%TD*%
%TA.AperFunction,Conductor*%
%ADD16C,0.300000*%
%TD*%
%TA.AperFunction,Conductor*%
%ADD17C,0.500000*%
%TD*%
G04 APERTURE END LIST*
D10*
%TO.P,J3,1,Pin_1_1*%
%TO.N,+3.3V*%
X112000000Y-35000000D03*
D11*
%TO.P,J3,2,Pin_2_2*%
%TO.N,/USART1_TX*%
X109460000Y-35000000D03*
%TO.P,J3,3,Pin_3_3*%
%TO.N,/USART1_RX*%
X106920000Y-35000000D03*
%TO.P,J3,4,Pin_4_4*%
%TO.N,GND*%
X104380000Y-35000000D03*
%TD*%
D12*
%TO.P,J1,SH,Shield_SH*%
%TO.N,unconnected-(J1-Shield-PadSH)*%
X138500000Y-51880000D03*
D13*
%TO.N,unconnected-(J1-Shield-PadSH)_2*%
X134700000Y-51730000D03*
%TO.N,unconnected-(J1-Shield-PadSH)_1*%
X134700000Y-44280000D03*
D12*
%TO.N,unconnected-(J1-Shield-PadSH)_3*%
X138500000Y-44130000D03*
%TD*%
D10*
%TO.P,J2,1,Pin_1_1*%
%TO.N,+3.3V*%
X129370000Y-34750000D03*
D11*
%TO.P,J2,2,Pin_2_2*%
%TO.N,/SW_DIO*%
X126830000Y-34750000D03*
%TO.P,J2,3,Pin_3_3*%
%TO.N,/SWCLK*%
X124290000Y-34750000D03*
%TO.P,J2,4,Pin_4_4*%
%TO.N,GND*%
X121750000Y-34750000D03*
%TD*%
D10*
%TO.P,J4,1,Pin_1_1*%
%TO.N,+3.3V*%
X105750000Y-61750000D03*
D11*
%TO.P,J4,2,Pin_2_2*%
%TO.N,/I2C2_SCL*%
X108290000Y-61750000D03*
%TO.P,J4,3,Pin_3_3*%
%TO.N,/I2C2_SDA*%
X110830000Y-61750000D03*
%TO.P,J4,4,Pin_4_4*%
%TO.N,GND*%
X113370000Y-61750000D03*
%TD*%
D14*
%TO.N,GND*%
X114725000Y-55265151D03*
X105300000Y-49700000D03*
X131705000Y-46705000D03*
D15*
X103250000Y-52750000D03*
D14*
X118500000Y-36000000D03*
X104500000Y-37500000D03*
D15*
%TO.N,+3.3V*%
X102000000Y-43500000D03*
X113575001Y-56094238D03*
X102000000Y-42000000D03*
X111750000Y-59000000D03*
X114875000Y-56000000D03*
X110000000Y-59000000D03*
%TO.N,GND*%
X133250000Y-55750000D03*
X130000000Y-58250000D03*
X120000000Y-46750000D03*
X124000000Y-52500000D03*
X101500000Y-45250000D03*
X107250000Y-45500000D03*
X109750000Y-49900000D03*
X102000000Y-52250000D03*
X105250000Y-47000000D03*
X124500000Y-57250000D03*
X103500000Y-46500000D03*
X124000000Y-53250000D03*
X104000000Y-54750000D03*
X110750000Y-39950000D03*
X123750000Y-57250000D03*
D14*
X111750000Y-55500000D03*
%TD*%
%TO.N,+3.3V*%
D16*
X111750000Y-59000000D02*
X110000000Y-59000000D01*
D17*
X113669239Y-56000000D02*
X113575001Y-56094238D01*
X114875000Y-56000000D02*
X113669239Y-56000000D01*
X102000000Y-42000000D02*
X102000000Y-43500000D01*
%TD*%
%TA.AperFunction,Conductor*%
%TO.N,GND*%
G36*
X137693730Y-32750200D02*
G01*
X137780994Y-32755174D01*
X137789124Y-32755908D01*
X137850276Y-32763490D01*
X137855996Y-32764337D01*
X138098789Y-32806210D01*
X138107967Y-32808154D01*
X138159616Y-32821160D01*
X138164132Y-32822389D01*
X138409522Y-32894187D01*
X138419524Y-32897583D01*
X138431807Y-32902348D01*
X138452512Y-32910380D01*
X138455782Y-32911702D01*
X138707835Y-33017823D01*
X138720502Y-33024027D01*
X138982012Y-33171115D01*
X138993887Y-33178714D01*
X139237016Y-33354575D01*
X139247947Y-33363473D01*
X139469498Y-33565798D01*
X139479359Y-33575890D01*
X139676494Y-33802079D01*
X139685145Y-33813227D01*
X139855304Y-34060344D01*
X139862632Y-34072402D01*
X139991127Y-34313794D01*
X139992741Y-34316932D01*
X140008482Y-34348647D01*
X140012779Y-34358322D01*
X140106465Y-34596119D01*
X140108107Y-34600532D01*
X140125747Y-34650826D01*
X140128522Y-34659815D01*
X140192179Y-34897722D01*
X140193565Y-34903439D01*
X140206638Y-34963593D01*
X140208118Y-34971692D01*
X140248152Y-35240964D01*
X140249500Y-35259199D01*
X140249500Y-60996753D01*
X140249330Y-61003244D01*
X140234814Y-61280182D01*
X140234204Y-61287574D01*
X140227187Y-61349856D01*
X140226440Y-61355371D01*
X140188150Y-61597126D01*
X140186569Y-61605319D01*
X140173923Y-61660729D01*
X140172806Y-61665232D01*
X140107718Y-61908141D01*
X140104984Y-61917002D01*
X140090077Y-61959603D01*
X140088800Y-61963086D01*
X139994259Y-62209374D01*
X139990215Y-62218737D01*
X139980325Y-62239274D01*
X139979090Y-62241767D01*
X139850593Y-62493959D01*
X139844103Y-62505200D01*
X139680187Y-62757608D01*
X139672558Y-62768109D01*
X139483149Y-63002010D01*
X139474464Y-63011655D01*
X139261655Y-63224464D01*
X139252010Y-63233149D01*
X139018109Y-63422558D01*
X139007608Y-63430187D01*
X138755200Y-63594103D01*
X138743959Y-63600593D01*
X138491767Y-63729090D01*
X138489274Y-63730325D01*
X138468737Y-63740215D01*
X138459374Y-63744259D01*
X138213086Y-63838800D01*
X138209603Y-63840077D01*
X138167002Y-63854984D01*
X138158141Y-63857718D01*
X137915232Y-63922806D01*
X137910729Y-63923923D01*
X137855319Y-63936569D01*
X137847126Y-63938150D01*
X137605371Y-63976440D01*
X137599856Y-63977187D01*
X137537574Y-63984204D01*
X137530182Y-63984814D01*
X137253244Y-63999330D01*
X137246753Y-63999500D01*
X99003285Y-63999500D01*
X98996731Y-63999327D01*
X98716927Y-63984517D01*
X98709392Y-63983887D01*
X98646023Y-63976640D01*
X98640524Y-63975886D01*
X98396273Y-63936812D01*
X98387862Y-63935167D01*
X98332470Y-63922328D01*
X98328067Y-63921222D01*
X98081686Y-63854524D01*
X98072540Y-63851664D01*
X98032492Y-63837422D01*
X98029185Y-63836193D01*
X97777226Y-63738431D01*
X97767525Y-63734182D01*
X97755507Y-63728294D01*
X97753257Y-63727163D01*
X97492720Y-63592888D01*
X97481402Y-63586276D01*
X97227445Y-63419300D01*
X97216889Y-63411530D01*
X96981981Y-63218685D01*
X96972305Y-63209845D01*
X96858327Y-63094091D01*
X96759063Y-62993281D01*
X96750376Y-62983471D01*
X96729756Y-62957546D01*
X96561187Y-62745610D01*
X96553592Y-62734952D01*
X96396341Y-62487535D01*
X96395046Y-62485451D01*
X96388073Y-62473970D01*
X96382972Y-62464699D01*
X96262924Y-62222654D01*
X96260512Y-62217498D01*
X96260501Y-62217473D01*
X96250000Y-62167533D01*
X96250000Y-60893713D01*
X97649500Y-60893713D01*
X97649500Y-61106286D01*
X97682324Y-61313533D01*
X97682754Y-61316243D01*
X97732721Y-61470026D01*
X97748444Y-61518414D01*
X97844951Y-61707820D01*
X97969890Y-61879786D01*
X98120213Y-62030109D01*
X98292179Y-62155048D01*
X98292181Y-62155049D01*
X98292184Y-62155051D01*
X98481588Y-62251557D01*
X98683757Y-62317246D01*
X98893713Y-62350500D01*
X98893714Y-62350500D01*
X99106286Y-62350500D01*
X99106287Y-62350500D01*
X99316243Y-62317246D01*
X99518412Y-62251557D01*
X99707816Y-62155051D01*
X99778696Y-62103554D01*
X99879786Y-62030109D01*
X99879788Y-62030106D01*
X99879792Y-62030104D01*
X100030104Y-61879792D01*
X100030106Y-61879788D01*
X100030109Y-61879786D01*
X100155048Y-61707820D01*
X100155047Y-61707820D01*
X100155051Y-61707816D01*
X100251557Y-61518412D01*
X100317246Y-61316243D01*
X100350500Y-61106287D01*
X100350500Y-60893713D01*
X100343915Y-60852135D01*
X104399500Y-60852135D01*
X104399500Y-62647870D01*
X104399501Y-62647876D01*
X104405908Y-62707483D01*
X104456202Y-62842328D01*
X104456206Y-62842335D01*
X104542452Y-62957544D01*
X104542455Y-62957547D01*
X104657664Y-63043793D01*
X104657671Y-63043797D01*
X104792517Y-63094091D01*
X104792516Y-63094091D01*
X104799444Y-63094835D01*
X104852127Y-63100500D01*
X106647872Y-63100499D01*
X106707483Y-63094091D01*
X106842331Y-63043796D01*
X106957546Y-62957546D01*
X107043796Y-62842331D01*
X107092810Y-62710916D01*
X107134681Y-62654984D01*
X107200145Y-62630566D01*
X107268418Y-62645417D01*
X107296673Y-62666569D01*
X107410213Y-62780109D01*
X107582179Y-62905048D01*
X107582181Y-62905049D01*
X107582184Y-62905051D01*
X107771588Y-63001557D01*
X107973757Y-63067246D01*
X108183713Y-63100500D01*
X108183714Y-63100500D01*
X108396286Y-63100500D01*
X108396287Y-63100500D01*
X108606243Y-63067246D01*
X108808412Y-63001557D01*
X108997816Y-62905051D01*
X109084138Y-62842335D01*
X109169786Y-62780109D01*
X109169788Y-62780106D01*
X109169792Y-62780104D01*
X109320104Y-62629792D01*
X109320106Y-62629788D01*
X109320109Y-62629786D01*
X109429086Y-62479789D01*
X109445051Y-62457816D01*
X109449514Y-62449054D01*
X109497488Y-62398259D01*
X109565308Y-62381463D01*
X109631444Y-62403999D01*
X109670486Y-62449056D01*
X109674951Y-62457820D01*
X109799890Y-62629786D01*
X109950213Y-62780109D01*
X110122179Y-62905048D01*
X110122181Y-62905049D01*
X110122184Y-62905051D01*
X110311588Y-63001557D01*
X110513757Y-63067246D01*
X110723713Y-63100500D01*
X110723714Y-63100500D01*
X110936286Y-63100500D01*
X110936287Y-63100500D01*
X111146243Y-63067246D01*
X111348412Y-63001557D01*
X111537816Y-62905051D01*
X111624138Y-62842335D01*
X111709786Y-62780109D01*
X111709788Y-62780106D01*
X111709792Y-62780104D01*
X111860104Y-62629792D01*
X111860106Y-62629788D01*
X111860109Y-62629786D01*
X111945890Y-62511717D01*
X111985051Y-62457816D01*
X111989793Y-62448508D01*
X112037763Y-62397711D01*
X112105583Y-62380911D01*
X112171719Y-62403445D01*
X112210763Y-62448500D01*
X112215373Y-62457547D01*
X112254728Y-62511716D01*
X112887037Y-61879408D01*
X112904075Y-61942993D01*
X112969901Y-62057007D01*
X113062993Y-62150099D01*
X113177007Y-62215925D01*
X113240590Y-62232962D01*
X112608282Y-62865269D01*
X112608282Y-62865270D01*
X112662449Y-62904624D01*
X112851782Y-63001095D01*
X113053870Y-63066757D01*
X113263754Y-63100000D01*
X113476246Y-63100000D01*
X113686127Y-63066757D01*
X113686130Y-63066757D01*
X113888217Y-63001095D01*
X114077554Y-62904622D01*
X114131716Y-62865270D01*
X114131717Y-62865270D01*
X113499408Y-62232962D01*
X113562993Y-62215925D01*
X113677007Y-62150099D01*
X113770099Y-62057007D01*
X113835925Y-61942993D01*
X113852962Y-61879409D01*
X114485270Y-62511717D01*
X114485270Y-62511716D01*
X114524622Y-62457554D01*
X114621095Y-62268217D01*
X114686757Y-62066130D01*
X114686757Y-62066127D01*
X114720000Y-61856246D01*
X114720000Y-61643753D01*
X114686757Y-61433872D01*
X114686757Y-61433869D01*
X114621095Y-61231782D01*
X114524623Y-61042447D01*
X114524621Y-61042443D01*
X114485271Y-60988282D01*
X114485269Y-60988282D01*
X113852962Y-61620590D01*
X113835925Y-61557007D01*
X113770099Y-61442993D01*
X113677007Y-61349901D01*
X113562993Y-61284075D01*
X113499409Y-61267037D01*
X113872732Y-60893713D01*
X135899500Y-60893713D01*
X135899500Y-61106286D01*
X135932324Y-61313533D01*
X135932754Y-61316243D01*
X135982721Y-61470026D01*
X135998444Y-61518414D01*
X136094951Y-61707820D01*
X136219890Y-61879786D01*
X136370213Y-62030109D01*
X136542179Y-62155048D01*
X136542181Y-62155049D01*
X136542184Y-62155051D01*
X136731588Y-62251557D01*
X136933757Y-62317246D01*
X137143713Y-62350500D01*
X137143714Y-62350500D01*
X137356286Y-62350500D01*
X137356287Y-62350500D01*
X137566243Y-62317246D01*
X137768412Y-62251557D01*
X137957816Y-62155051D01*
X138028696Y-62103554D01*
X138129786Y-62030109D01*
X138129788Y-62030106D01*
X138129792Y-62030104D01*
X138280104Y-61879792D01*
X138280106Y-61879788D01*
X138280109Y-61879786D01*
X138405048Y-61707820D01*
X138405047Y-61707820D01*
X138405051Y-61707816D01*
X138501557Y-61518412D01*
X138567246Y-61316243D01*
X138600500Y-61106287D01*
X138600500Y-60893713D01*
X138567246Y-60683757D01*
X138501557Y-60481588D01*
X138405051Y-60292184D01*
X138405049Y-60292181D01*
X138405048Y-60292179D01*
X138280109Y-60120213D01*
X138129786Y-59969890D01*
X137957820Y-59844951D01*
X137768414Y-59748444D01*
X137768413Y-59748443D01*
X137768412Y-59748443D01*
X137566243Y-59682754D01*
X137566241Y-59682753D01*
X137566240Y-59682753D01*
X137404957Y-59657208D01*
X137356287Y-59649500D01*
X137143713Y-59649500D01*
X137095042Y-59657208D01*
X136933760Y-59682753D01*
X136731585Y-59748444D01*
X136542179Y-59844951D01*
X136370213Y-59969890D01*
X136219890Y-60120213D01*
X136094951Y-60292179D01*
X135998444Y-60481585D01*
X135932753Y-60683760D01*
X135899500Y-60893713D01*
X113872732Y-60893713D01*
X114131716Y-60634728D01*
X114077550Y-60595375D01*
X113888217Y-60498904D01*
X113686129Y-60433242D01*
X113476246Y-60400000D01*
X113263754Y-60400000D01*
X113053872Y-60433242D01*
X113053869Y-60433242D01*
X112851782Y-60498904D01*
X112662439Y-60595380D01*
X112608282Y-60634727D01*
X112608282Y-60634728D01*
X113240591Y-61267037D01*
X113177007Y-61284075D01*
X113062993Y-61349901D01*
X112969901Y-61442993D01*
X112904075Y-61557007D01*
X112887037Y-61620591D01*
X112254728Y-60988282D01*
X112254727Y-60988282D01*
X112215380Y-61042440D01*
X112215376Y-61042446D01*
X112210760Y-61051505D01*
X112162781Y-61102297D01*
X112094959Y-61119087D01*
X112028826Y-61096543D01*
X111989794Y-61051493D01*
X111985051Y-61042184D01*
X111985049Y-61042181D01*
X111985048Y-61042179D01*
X111860109Y-60870213D01*
X111709786Y-60719890D01*
X111537820Y-60594951D01*
X111348414Y-60498444D01*
X111348413Y-60498443D01*
X111348412Y-60498443D01*
X111146243Y-60432754D01*
X111146241Y-60432753D01*
X111146240Y-60432753D01*
X110984957Y-60407208D01*
X110936287Y-60399500D01*
X110723713Y-60399500D01*
X110675042Y-60407208D01*
X110513760Y-60432753D01*
X110311585Y-60498444D01*
X110122179Y-60594951D01*
X109950213Y-60719890D01*
X109799890Y-60870213D01*
X109674949Y-61042182D01*
X109670484Y-61050946D01*
X109622509Y-61101742D01*
X109554688Y-61118536D01*
X109488553Y-61095998D01*
X109449516Y-61050946D01*
X109445050Y-61042182D01*
X109320109Y-60870213D01*
X109169786Y-60719890D01*
X108997820Y-60594951D01*
X108808414Y-60498444D01*
X108808413Y-60498443D01*
X108808412Y-60498443D01*
X108606243Y-60432754D01*
X108606241Y-60432753D01*
X108606240Y-60432753D01*
X108444957Y-60407208D01*
X108396287Y-60399500D01*
X108183713Y-60399500D01*
X108135042Y-60407208D01*
X107973760Y-60432753D01*
X107771585Y-60498444D01*
X107582179Y-60594951D01*
X107410215Y-60719889D01*
X107296673Y-60833431D01*
X107235350Y-60866915D01*
X107165658Y-60861931D01*
X107109725Y-60820059D01*
X107092810Y-60789082D01*
X107043797Y-60657671D01*
X107043793Y-60657664D01*
X106957547Y-60542455D01*
X106957544Y-60542452D01*
X106842335Y-60456206D01*
X106842328Y-60456202D01*
X106707482Y-60405908D01*
X106707483Y-60405908D01*
X106647883Y-60399501D01*
X106647881Y-60399500D01*
X106647873Y-60399500D01*
X106647864Y-60399500D01*
X104852129Y-60399500D01*
X104852123Y-60399501D01*
X104792516Y-60405908D01*
X104657671Y-60456202D01*
X104657664Y-60456206D01*
X104542455Y-60542452D01*
X104542452Y-60542455D01*
X104456206Y-60657664D01*
X104456202Y-60657671D01*
X104405908Y-60792517D01*
X104399501Y-60852116D01*
X104399500Y-60852135D01*
X100343915Y-60852135D01*
X100317246Y-60683757D01*
X100251557Y-60481588D01*
X100155051Y-60292184D01*
X100155049Y-60292181D01*
X100155048Y-60292179D01*
X100030109Y-60120213D01*
X99879786Y-59969890D01*
X99707820Y-59844951D01*
X99518414Y-59748444D01*
X99518413Y-59748443D01*
X99518412Y-59748443D01*
X99316243Y-59682754D01*
X99316241Y-59682753D01*
X99316240Y-59682753D01*
X99154957Y-59657208D01*
X99106287Y-59649500D01*
X98893713Y-59649500D01*
X98845042Y-59657208D01*
X98683760Y-59682753D01*
X98481585Y-59748444D01*
X98292179Y-59844951D01*
X98120213Y-59969890D01*
X97969890Y-60120213D01*
X97844951Y-60292179D01*
X97748444Y-60481585D01*
X97682753Y-60683760D01*
X97649500Y-60893713D01*
X96250000Y-60893713D01*
X96250000Y-58916228D01*
X109149500Y-58916228D01*
X109149500Y-59083771D01*
X109182182Y-59248074D01*
X109182184Y-59248082D01*
X109246295Y-59402860D01*
X109339373Y-59542162D01*
X109457837Y-59660626D01*
X109550494Y-59722537D01*
X109597137Y-59753703D01*
X109751918Y-59817816D01*
X109888326Y-59844949D01*
X109916228Y-59850499D01*
X109916232Y-59850500D01*
X109916233Y-59850500D01*
X110083768Y-59850500D01*
X110083769Y-59850499D01*
X110248082Y-59817816D01*
X110402863Y-59753703D01*
X110526041Y-59671398D01*
X110592719Y-59650520D01*
X110594932Y-59650500D01*
X111155068Y-59650500D01*
X111222107Y-59670185D01*
X111223959Y-59671398D01*
X111347137Y-59753703D01*
X111501918Y-59817816D01*
X111638326Y-59844949D01*
X111666228Y-59850499D01*
X111666232Y-59850500D01*
X111666233Y-59850500D01*
X111833768Y-59850500D01*
X111833769Y-59850499D01*
X111998082Y-59817816D01*
X112152863Y-59753703D01*
X112292162Y-59660626D01*
X112410626Y-59542162D01*
X112503703Y-59402863D01*
X112567816Y-59248082D01*
X112600500Y-59083767D01*
X112600500Y-58916233D01*
X112567816Y-58751918D01*
X112503703Y-58597137D01*
X112472537Y-58550494D01*
X112410626Y-58457837D01*
X112292162Y-58339373D01*
X112152860Y-58246295D01*
X111998082Y-58182184D01*
X111998074Y-58182182D01*
X111833771Y-58149500D01*
X111833767Y-58149500D01*
X111666233Y-58149500D01*
X111666228Y-58149500D01*
X111501925Y-58182182D01*
X111501917Y-58182184D01*
X111347139Y-58246295D01*
X111223959Y-58328602D01*
X111157281Y-58349480D01*
X111155068Y-58349500D01*
X110594932Y-58349500D01*
X110527893Y-58329815D01*
X110526041Y-58328602D01*
X110402860Y-58246295D01*
X110248082Y-58182184D01*
X110248074Y-58182182D01*
X110083771Y-58149500D01*
X110083767Y-58149500D01*
X109916233Y-58149500D01*
X109916228Y-58149500D01*
X109751925Y-58182182D01*
X109751917Y-58182184D01*
X109597139Y-58246295D01*
X109457837Y-58339373D01*
X109339373Y-58457837D01*
X109246295Y-58597139D01*
X109182184Y-58751917D01*
X109182182Y-58751925D01*
X109149500Y-58916228D01*
X96250000Y-58916228D01*
X96250000Y-56010466D01*
X112724501Y-56010466D01*
X112724501Y-56178009D01*
X112757183Y-56342312D01*
X112757185Y-56342320D01*
X112821296Y-56497098D01*
X112914374Y-56636400D01*
X113032838Y-56754864D01*
X113125495Y-56816775D01*
X113172138Y-56847941D01*
X113326919Y-56912054D01*
X113491229Y-56944737D01*
X113491233Y-56944738D01*
X113491234Y-56944738D01*
X113658769Y-56944738D01*
X113658770Y-56944737D01*
X113823083Y-56912054D01*
X113977864Y-56847941D01*
X114022951Y-56817815D01*
X114092420Y-56771398D01*
X114159097Y-56750520D01*
X114161310Y-56750500D01*
X114439739Y-56750500D01*
X114487191Y-56759938D01*
X114626918Y-56817816D01*
X114778358Y-56847939D01*
X114791228Y-56850499D01*
X114791232Y-56850500D01*
X114791233Y-56850500D01*
X114958768Y-56850500D01*
X114958769Y-56850499D01*
X115123082Y-56817816D01*
X115277863Y-56753703D01*
X115417162Y-56660626D01*
X115535626Y-56542162D01*
X115628703Y-56402863D01*
X115692816Y-56248082D01*
X115725500Y-56083767D01*
X115725500Y-55916233D01*
X115692816Y-55751918D01*
X115628703Y-55597137D01*
X115597537Y-55550494D01*
X115535626Y-55457837D01*
X115417162Y-55339373D01*
X115277860Y-55246295D01*
X115123082Y-55182184D01*
X115123074Y-55182182D01*
X114958771Y-55149500D01*
X114958767Y-55149500D01*
X114791233Y-55149500D01*
X114791228Y-55149500D01*
X114626925Y-55182182D01*
X114626917Y-55182184D01*
X114487192Y-55240061D01*
X114439739Y-55249500D01*
X113699948Y-55249500D01*
X113675756Y-55247117D01*
X113658769Y-55243738D01*
X113658768Y-55243738D01*
X113491234Y-55243738D01*
X113491229Y-55243738D01*
X113326926Y-55276420D01*
X113326918Y-55276422D01*
X113172140Y-55340533D01*
X113032838Y-55433611D01*
X112914374Y-55552075D01*
X112821296Y-55691377D01*
X112757185Y-55846155D01*
X112757183Y-55846163D01*
X112724501Y-56010466D01*
X96250000Y-56010466D01*
X96250000Y-51633551D01*
X133199500Y-51633551D01*
X133199500Y-51826448D01*
X133229675Y-52016969D01*
X133229676Y-52016972D01*
X133289285Y-52200429D01*
X133376859Y-52372302D01*
X133490241Y-52528359D01*
X133626641Y-52664759D01*
X133782698Y-52778141D01*
X133954571Y-52865715D01*
X134138028Y-52925324D01*
X134328551Y-52955500D01*
X134328552Y-52955500D01*
X135071448Y-52955500D01*
X135071449Y-52955500D01*
X135261972Y-52925324D01*
X135445429Y-52865715D01*
X135617302Y-52778141D01*
X135773359Y-52664759D01*
X135909759Y-52528359D01*
X136023141Y-52372302D01*
X136110715Y-52200429D01*
X136170324Y-52016972D01*
X136200500Y-51826449D01*
X136200500Y-51795350D01*
X137099500Y-51795350D01*
X137099500Y-51964649D01*
X137125981Y-52131847D01*
X137178296Y-52292853D01*
X137255152Y-52443688D01*
X137354648Y-52580634D01*
X137354652Y-52580639D01*
X137474360Y-52700347D01*
X137474365Y-52700351D01*
X137581434Y-52778140D01*
X137611315Y-52799850D01*
X137707425Y-52848820D01*
X137762146Y-52876703D01*
X137762148Y-52876703D01*
X137762151Y-52876705D01*
X137848450Y-52904745D01*
X137923152Y-52929018D01*
X138090351Y-52955500D01*
X138090356Y-52955500D01*
X138909649Y-52955500D01*
X139076847Y-52929018D01*
X139088216Y-52925324D01*
X139237849Y-52876705D01*
X139388685Y-52799850D01*
X139525641Y-52700346D01*
X139645346Y-52580641D01*
X139744850Y-52443685D01*
X139821705Y-52292849D01*
X139874018Y-52131847D01*
X139900500Y-51964649D01*
X139900500Y-51795350D01*
X139874018Y-51628152D01*
X139821703Y-51467146D01*
X139793820Y-51412425D01*
X139744850Y-51316315D01*
X139663586Y-51204464D01*
X139645351Y-51179365D01*
X139645347Y-51179360D01*
X139525639Y-51059652D01*
X139525634Y-51059648D01*
X139388688Y-50960152D01*
X139388687Y-50960151D01*
X139388685Y-50960150D01*
X139332727Y-50931638D01*
X139237853Y-50883296D01*
X139076847Y-50830981D01*
X138909649Y-50804500D01*
X138909644Y-50804500D01*
X138090356Y-50804500D01*
X138090351Y-50804500D01*
X137923152Y-50830981D01*
X137762146Y-50883296D01*
X137611311Y-50960152D01*
X137474365Y-51059648D01*
X137474360Y-51059652D01*
X137354652Y-51179360D01*
X137354648Y-51179365D01*
X137255152Y-51316311D01*
X137178296Y-51467146D01*
X137125981Y-51628152D01*
X137099500Y-51795350D01*
X136200500Y-51795350D01*
X136200500Y-51633551D01*
X136170324Y-51443028D01*
X136163060Y-51420675D01*
X136161066Y-51350835D01*
X136197146Y-51291002D01*
X136212097Y-51279258D01*
X136324035Y-51204464D01*
X136449464Y-51079035D01*
X136548013Y-50931547D01*
X136615894Y-50767666D01*
X136650500Y-50593691D01*
X136650500Y-50416309D01*
X136650500Y-50416306D01*
X136650499Y-50416304D01*
X136615896Y-50242341D01*
X136615893Y-50242332D01*
X136548016Y-50078459D01*
X136548009Y-50078446D01*
X136449464Y-49930965D01*
X136449461Y-49930961D01*
X136324038Y-49805538D01*
X136324034Y-49805535D01*
X136176553Y-49706990D01*
X136176540Y-49706983D01*
X136012667Y-49639106D01*
X136012658Y-49639103D01*
X135838694Y-49604500D01*
X135838691Y-49604500D01*
X135661309Y-49604500D01*
X135661306Y-49604500D01*
X135487341Y-49639103D01*
X135487332Y-49639106D01*
X135323459Y-49706983D01*
X135323446Y-49706990D01*
X135175965Y-49805535D01*
X135175961Y-49805538D01*
X135050538Y-49930961D01*
X135050535Y-49930965D01*
X134951990Y-50078446D01*
X134951983Y-50078459D01*
X134884106Y-50242332D01*
X134884104Y-50242340D01*
X134851810Y-50404692D01*
X134819425Y-50466603D01*
X134758709Y-50501177D01*
X134730193Y-50504500D01*
X134328551Y-50504500D01*
X134292697Y-50510178D01*
X134138030Y-50534675D01*
X133954568Y-50594286D01*
X133782697Y-50681859D01*
X133693661Y-50746547D01*
X133626641Y-50795241D01*
X133626639Y-50795243D01*
X133626638Y-50795243D01*
X133490243Y-50931638D01*
X133490243Y-50931639D01*
X133490241Y-50931641D01*
X133469528Y-50960150D01*
X133376859Y-51087697D01*
X133289286Y-51259568D01*
X133229675Y-51443030D01*
X133199500Y-51633551D01*
X96250000Y-51633551D01*
X96250000Y-44568995D01*
X97289499Y-44568995D01*
X97316418Y-44704322D01*
X97316421Y-44704332D01*
X97369221Y-44831804D01*
X97369228Y-44831817D01*
X97445885Y-44946541D01*
X97445888Y-44946545D01*
X97543454Y-45044111D01*
X97543458Y-45044114D01*
X97658182Y-45120771D01*
X97658195Y-45120778D01*
X97785667Y-45173578D01*
X97785672Y-45173580D01*
X97785676Y-45173580D01*
X97785677Y-45173581D01*
X97921004Y-45200500D01*
X97921007Y-45200500D01*
X98058995Y-45200500D01*
X98150041Y-45182389D01*
X98194328Y-45173580D01*
X98307495Y-45126705D01*
X98321804Y-45120778D01*
X98321804Y-45120777D01*
X98321811Y-45120775D01*
X98436542Y-45044114D01*
X98534114Y-44946542D01*
X98610775Y-44831811D01*
X98611261Y-44830639D01*
X98622740Y-44802924D01*
X98663580Y-44704328D01*
X98682780Y-44607805D01*
X98690500Y-44568995D01*
X98690500Y-44431004D01*
X98663581Y-44295677D01*
X98663580Y-44295676D01*
X98663580Y-44295672D01*
X98663578Y-44295667D01*
X98610778Y-44168195D01*
X98610771Y-44168182D01*
X98534114Y-44053458D01*
X98534111Y-44053454D01*
X98436545Y-43955888D01*
X98436541Y-43955885D01*
X98321817Y-43879228D01*
X98321804Y-43879221D01*
X98194332Y-43826421D01*
X98194322Y-43826418D01*
X98058995Y-43799500D01*
X98058993Y-43799500D01*
X97921007Y-43799500D01*
X97921005Y-43799500D01*
X97785677Y-43826418D01*
X97785667Y-43826421D01*
X97658195Y-43879221D01*
X97658182Y-43879228D01*
X97543458Y-43955885D01*
X97543454Y-43955888D01*
X97445888Y-44053454D01*
X97445885Y-44053458D01*
X97369228Y-44168182D01*
X97369221Y-44168195D01*
X97316421Y-44295667D01*
X97316418Y-44295677D01*
X97289500Y-44431004D01*
X97289500Y-44431007D01*
X97289500Y-44568993D01*
X97289500Y-44568995D01*
X97289499Y-44568995D01*
X96250000Y-44568995D01*
X96250000Y-41568995D01*
X97289499Y-41568995D01*
X97316418Y-41704322D01*
X97316421Y-41704332D01*
X97369221Y-41831804D01*
X97369228Y-41831817D01*
X97445885Y-41946541D01*
X97445888Y-41946545D01*
X97543454Y-42044111D01*
X97543458Y-42044114D01*
X97658182Y-42120771D01*
X97658195Y-42120778D01*
X97785667Y-42173578D01*
X97785672Y-42173580D01*
X97785676Y-42173580D01*
X97785677Y-42173581D01*
X97921004Y-42200500D01*
X97921007Y-42200500D01*
X98058995Y-42200500D01*
X98150041Y-42182389D01*
X98194328Y-42173580D01*
X98321811Y-42120775D01*
X98436542Y-42044114D01*
X98534114Y-41946542D01*
X98554369Y-41916228D01*
X101149500Y-41916228D01*
X101149500Y-42083771D01*
X101182182Y-42248074D01*
X101182184Y-42248082D01*
X101240061Y-42387808D01*
X101249500Y-42435261D01*
X101249500Y-43064739D01*
X101240061Y-43112192D01*
X101182184Y-43251917D01*
X101182182Y-43251925D01*
X101149500Y-43416228D01*
X101149500Y-43583771D01*
X101182182Y-43748074D01*
X101182184Y-43748082D01*
X101246295Y-43902860D01*
X101339373Y-44042162D01*
X101457837Y-44160626D01*
X101538681Y-44214644D01*
X101597137Y-44253703D01*
X101751918Y-44317816D01*
X101916228Y-44350499D01*
X101916232Y-44350500D01*
X101916233Y-44350500D01*
X102083768Y-44350500D01*
X102083769Y-44350499D01*
X102248082Y-44317816D01*
X102402863Y-44253703D01*
X102507852Y-44183551D01*
X133199500Y-44183551D01*
X133199500Y-44376448D01*
X133229675Y-44566969D01*
X133229676Y-44566972D01*
X133289285Y-44750429D01*
X133376859Y-44922302D01*
X133490241Y-45078359D01*
X133626641Y-45214759D01*
X133782698Y-45328141D01*
X133954571Y-45415715D01*
X134138028Y-45475324D01*
X134328551Y-45505500D01*
X134730193Y-45505500D01*
X134797232Y-45525185D01*
X134842987Y-45577989D01*
X134851810Y-45605308D01*
X134884104Y-45767659D01*
X134884106Y-45767667D01*
X134951983Y-45931540D01*
X134951990Y-45931553D01*
X135050535Y-46079034D01*
X135050538Y-46079038D01*
X135175961Y-46204461D01*
X135175965Y-46204464D01*
X135323446Y-46303009D01*
X135323459Y-46303016D01*
X135446363Y-46353923D01*
X135487334Y-46370894D01*
X135487336Y-46370894D01*
X135487341Y-46370896D01*
X135661304Y-46405499D01*
X135661307Y-46405500D01*
X135661309Y-46405500D01*
X135838693Y-46405500D01*
X135838694Y-46405499D01*
X135896682Y-46393964D01*
X136012658Y-46370896D01*
X136012661Y-46370894D01*
X136012666Y-46370894D01*
X136176547Y-46303013D01*
X136324035Y-46204464D01*
X136449464Y-46079035D01*
X136548013Y-45931547D01*
X136615894Y-45767666D01*
X136615894Y-45767661D01*
X136615896Y-45767658D01*
X136650499Y-45593695D01*
X136650500Y-45593693D01*
X136650500Y-45416306D01*
X136650499Y-45416304D01*
X136615896Y-45242341D01*
X136615893Y-45242332D01*
X136548016Y-45078459D01*
X136548009Y-45078446D01*
X136449464Y-44930965D01*
X136449461Y-44930961D01*
X136324038Y-44805538D01*
X136324034Y-44805535D01*
X136212101Y-44730743D01*
X136167296Y-44677130D01*
X136158589Y-44607805D01*
X136163057Y-44589334D01*
X136170324Y-44566972D01*
X136200500Y-44376449D01*
X136200500Y-44183551D01*
X136178611Y-44045350D01*
X137099500Y-44045350D01*
X137099500Y-44214649D01*
X137125981Y-44381847D01*
X137178296Y-44542853D01*
X137231150Y-44646582D01*
X137252307Y-44688106D01*
X137255152Y-44693688D01*
X137354648Y-44830634D01*
X137354652Y-44830639D01*
X137474360Y-44950347D01*
X137474365Y-44950351D01*
X137593817Y-45037137D01*
X137611315Y-45049850D01*
X137707425Y-45098820D01*
X137762146Y-45126703D01*
X137762148Y-45126703D01*
X137762151Y-45126705D01*
X137848450Y-45154745D01*
X137923152Y-45179018D01*
X138090351Y-45205500D01*
X138090356Y-45205500D01*
X138909649Y-45205500D01*
X139076847Y-45179018D01*
X139093583Y-45173580D01*
X139237849Y-45126705D01*
X139388685Y-45049850D01*
X139525641Y-44950346D01*
X139645346Y-44830641D01*
X139744850Y-44693685D01*
X139821705Y-44542849D01*
X139874018Y-44381847D01*
X139878983Y-44350499D01*
X139900500Y-44214649D01*
X139900500Y-44045350D01*
X139874018Y-43878152D01*
X139831755Y-43748082D01*
X139821705Y-43717151D01*
X139821703Y-43717148D01*
X139821703Y-43717146D01*
X139793820Y-43662425D01*
X139744850Y-43566315D01*
X139683329Y-43481638D01*
X139645351Y-43429365D01*
X139645347Y-43429360D01*
X139525639Y-43309652D01*
X139525634Y-43309648D01*
X139388688Y-43210152D01*
X139388687Y-43210151D01*
X139388685Y-43210150D01*
X139341582Y-43186150D01*
X139237853Y-43133296D01*
X139076847Y-43080981D01*
X138909649Y-43054500D01*
X138909644Y-43054500D01*
X138090356Y-43054500D01*
X138090351Y-43054500D01*
X137923152Y-43080981D01*
X137762146Y-43133296D01*
X137611311Y-43210152D01*
X137474365Y-43309648D01*
X137474360Y-43309652D01*
X137354652Y-43429360D01*
X137354648Y-43429365D01*
X137255152Y-43566311D01*
X137178296Y-43717146D01*
X137125981Y-43878152D01*
X137099500Y-44045350D01*
X136178611Y-44045350D01*
X136170324Y-43993028D01*
X136110715Y-43809571D01*
X136023141Y-43637698D01*
X135909759Y-43481641D01*
X135773359Y-43345241D01*
X135617302Y-43231859D01*
X135445429Y-43144285D01*
X135261972Y-43084676D01*
X135261970Y-43084675D01*
X135261969Y-43084675D01*
X135115614Y-43061495D01*
X135071449Y-43054500D01*
X134328551Y-43054500D01*
X134292697Y-43060178D01*
X134138030Y-43084675D01*
X133954568Y-43144286D01*
X133782697Y-43231859D01*
X133693661Y-43296547D01*
X133626641Y-43345241D01*
X133626639Y-43345243D01*
X133626638Y-43345243D01*
X133490243Y-43481638D01*
X133490243Y-43481639D01*
X133490241Y-43481641D01*
X133441547Y-43548661D01*
X133376859Y-43637697D01*
X133289286Y-43809568D01*
X133229675Y-43993030D01*
X133199500Y-44183551D01*
X102507852Y-44183551D01*
X102542162Y-44160626D01*
X102542165Y-44160623D01*
X102611791Y-44090998D01*
X102660623Y-44042165D01*
X102660626Y-44042162D01*
X102693456Y-43993028D01*
X102753703Y-43902863D01*
X102817816Y-43748082D01*
X102850500Y-43583767D01*
X102850500Y-43416233D01*
X102817816Y-43251918D01*
X102759938Y-43112191D01*
X102750500Y-43064739D01*
X102750500Y-42435261D01*
X102759939Y-42387808D01*
X102817816Y-42248082D01*
X102850500Y-42083767D01*
X102850500Y-41916233D01*
X102817816Y-41751918D01*
X102753703Y-41597137D01*
X102722537Y-41550494D01*
X102660626Y-41457837D01*
X102542162Y-41339373D01*
X102402860Y-41246295D01*
X102248082Y-41182184D01*
X102248074Y-41182182D01*
X102083771Y-41149500D01*
X102083767Y-41149500D01*
X101916233Y-41149500D01*
X101916228Y-41149500D01*
X101751925Y-41182182D01*
X101751917Y-41182184D01*
X101597139Y-41246295D01*
X101457837Y-41339373D01*
X101339373Y-41457837D01*
X101246295Y-41597139D01*
X101182184Y-41751917D01*
X101182182Y-41751925D01*
X101149500Y-41916228D01*
X98554369Y-41916228D01*
X98563087Y-41903180D01*
X98604469Y-41841250D01*
X98604469Y-41841249D01*
X98610769Y-41831820D01*
X98610771Y-41831817D01*
X98610775Y-41831811D01*
X98663580Y-41704328D01*
X98672389Y-41660041D01*
X98690500Y-41568995D01*
X98690500Y-41431004D01*
X98663581Y-41295677D01*
X98663580Y-41295676D01*
X98663580Y-41295672D01*
X98663578Y-41295667D01*
X98610778Y-41168195D01*
X98610771Y-41168182D01*
X98534114Y-41053458D01*
X98534111Y-41053454D01*
X98436545Y-40955888D01*
X98436541Y-40955885D01*
X98321817Y-40879228D01*
X98321804Y-40879221D01*
X98194332Y-40826421D01*
X98194322Y-40826418D01*
X98058995Y-40799500D01*
X98058993Y-40799500D01*
X97921007Y-40799500D01*
X97921005Y-40799500D01*
X97785677Y-40826418D01*
X97785667Y-40826421D01*
X97658195Y-40879221D01*
X97658182Y-40879228D01*
X97543458Y-40955885D01*
X97543454Y-40955888D01*
X97445888Y-41053454D01*
X97445885Y-41053458D01*
X97369228Y-41168182D01*
X97369221Y-41168195D01*
X97316421Y-41295667D01*
X97316418Y-41295677D01*
X97289500Y-41431004D01*
X97289500Y-41431007D01*
X97289500Y-41568993D01*
X97289500Y-41568995D01*
X97289499Y-41568995D01*
X96250000Y-41568995D01*
X96250000Y-35393713D01*
X97649500Y-35393713D01*
X97649500Y-35606287D01*
X97657057Y-35653999D01*
X97674117Y-35761716D01*
X97682754Y-35816243D01*
X97742966Y-36001557D01*
X97748444Y-36018414D01*
X97844951Y-36207820D01*
X97969890Y-36379786D01*
X98120213Y-36530109D01*
X98292179Y-36655048D01*
X98292181Y-36655049D01*
X98292184Y-36655051D01*
X98481588Y-36751557D01*
X98683757Y-36817246D01*
X98893713Y-36850500D01*
X98893714Y-36850500D01*
X99106286Y-36850500D01*
X99106287Y-36850500D01*
X99316243Y-36817246D01*
X99518412Y-36751557D01*
X99707816Y-36655051D01*
X99729789Y-36639086D01*
X99879786Y-36530109D01*
X99879788Y-36530106D01*
X99879792Y-36530104D01*
X100030104Y-36379792D01*
X100030106Y-36379788D01*
X100030109Y-36379786D01*
X100155048Y-36207820D01*
X100155047Y-36207820D01*
X100155051Y-36207816D01*
X100251557Y-36018412D01*
X100317246Y-35816243D01*
X100350500Y-35606287D01*
X100350500Y-35393713D01*
X100317246Y-35183757D01*
X100251557Y-34981588D01*
X100251555Y-34981585D01*
X100251554Y-34981580D01*
X100251553Y-34981579D01*
X100233006Y-34945178D01*
X100233004Y-34945176D01*
X100231892Y-34942993D01*
X100206803Y-34893753D01*
X103030000Y-34893753D01*
X103030000Y-35106246D01*
X103063242Y-35316127D01*
X103063242Y-35316130D01*
X103128904Y-35518217D01*
X103225375Y-35707550D01*
X103264728Y-35761716D01*
X103897037Y-35129408D01*
X103914075Y-35192993D01*
X103979901Y-35307007D01*
X104072993Y-35400099D01*
X104187007Y-35465925D01*
X104250590Y-35482962D01*
X103618282Y-36115269D01*
X103618282Y-36115270D01*
X103672449Y-36154624D01*
X103861782Y-36251095D01*
X104063870Y-36316757D01*
X104273754Y-36350000D01*
X104486246Y-36350000D01*
X104696127Y-36316757D01*
X104696130Y-36316757D01*
X104898217Y-36251095D01*
X105087554Y-36154622D01*
X105141716Y-36115270D01*
X105141717Y-36115270D01*
X104509408Y-35482962D01*
X104572993Y-35465925D01*
X104687007Y-35400099D01*
X104780099Y-35307007D01*
X104845925Y-35192993D01*
X104862962Y-35129409D01*
X105495270Y-35761717D01*
X105495270Y-35761716D01*
X105534622Y-35707555D01*
X105539232Y-35698507D01*
X105587205Y-35647709D01*
X105655025Y-35630912D01*
X105721161Y-35653447D01*
X105760204Y-35698504D01*
X105764949Y-35707817D01*
X105889890Y-35879786D01*
X106040213Y-36030109D01*
X106212179Y-36155048D01*
X106212181Y-36155049D01*
X106212184Y-36155051D01*
X106401588Y-36251557D01*
X106603757Y-36317246D01*
X106813713Y-36350500D01*
X106813714Y-36350500D01*
X107026286Y-36350500D01*
X107026287Y-36350500D01*
X107236243Y-36317246D01*
X107438412Y-36251557D01*
X107627816Y-36155051D01*
X107702901Y-36100499D01*
X107799786Y-36030109D01*
X107799788Y-36030106D01*
X107799792Y-36030104D01*
X107950104Y-35879792D01*
X107950106Y-35879788D01*
X107950109Y-35879786D01*
X108075048Y-35707820D01*
X108075050Y-35707817D01*
X108075051Y-35707816D01*
X108079514Y-35699054D01*
X108127488Y-35648259D01*
X108195308Y-35631463D01*
X108261444Y-35653999D01*
X108300486Y-35699056D01*
X108304951Y-35707820D01*
X108429890Y-35879786D01*
X108580213Y-36030109D01*
X108752179Y-36155048D01*
X108752181Y-36155049D01*
X108752184Y-36155051D01*
X108941588Y-36251557D01*
X109143757Y-36317246D01*
X109353713Y-36350500D01*
X109353714Y-36350500D01*
X109566286Y-36350500D01*
X109566287Y-36350500D01*
X109776243Y-36317246D01*
X109978412Y-36251557D01*
X110167816Y-36155051D01*
X110320945Y-36043797D01*
X110339784Y-36030110D01*
X110339784Y-36030109D01*
X110339792Y-36030104D01*
X110453329Y-35916566D01*
X110514648Y-35883084D01*
X110584340Y-35888068D01*
X110640274Y-35929939D01*
X110657189Y-35960917D01*
X110706202Y-36092328D01*
X110706206Y-36092335D01*
X110792452Y-36207544D01*
X110792455Y-36207547D01*
X110907664Y-36293793D01*
X110907671Y-36293797D01*
X111042517Y-36344091D01*
X111042516Y-36344091D01*
X111049444Y-36344835D01*
X111102127Y-36350500D01*
X112897872Y-36350499D01*
X112957483Y-36344091D01*
X113092331Y-36293796D01*
X113207546Y-36207546D01*
X113293796Y-36092331D01*
X113344091Y-35957483D01*
X113350500Y-35897873D01*
X113350499Y-34643753D01*
X120400000Y-34643753D01*
X120400000Y-34856246D01*
X120433242Y-35066127D01*
X120433242Y-35066130D01*
X120498904Y-35268217D01*
X120595375Y-35457550D01*
X120634728Y-35511716D01*
X121267037Y-34879408D01*
X121284075Y-34942993D01*
X121349901Y-35057007D01*
X121442993Y-35150099D01*
X121557007Y-35215925D01*
X121620590Y-35232962D01*
X120988282Y-35865269D01*
X120988282Y-35865270D01*
X121042449Y-35904624D01*
X121231782Y-36001095D01*
X121433870Y-36066757D01*
X121643754Y-36100000D01*
X121856246Y-36100000D01*
X122066127Y-36066757D01*
X122066130Y-36066757D01*
X122268217Y-36001095D01*
X122457554Y-35904622D01*
X122511716Y-35865270D01*
X122511717Y-35865270D01*
X121879408Y-35232962D01*
X121942993Y-35215925D01*
X122057007Y-35150099D01*
X122150099Y-35057007D01*
X122215925Y-34942993D01*
X122232962Y-34879408D01*
X122865270Y-35511717D01*
X122865270Y-35511716D01*
X122904622Y-35457555D01*
X122909232Y-35448507D01*
X122957205Y-35397709D01*
X123025025Y-35380912D01*
X123091161Y-35403447D01*
X123130204Y-35448504D01*
X123134949Y-35457817D01*
X123259890Y-35629786D01*
X123410213Y-35780109D01*
X123582179Y-35905048D01*
X123582181Y-35905049D01*
X123582184Y-35905051D01*
X123771588Y-36001557D01*
X123973757Y-36067246D01*
X124183713Y-36100500D01*
X124183714Y-36100500D01*
X124396286Y-36100500D01*
X124396287Y-36100500D01*
X124606243Y-36067246D01*
X124808412Y-36001557D01*
X124997816Y-35905051D01*
X125084138Y-35842335D01*
X125169786Y-35780109D01*
X125169788Y-35780106D01*
X125169792Y-35780104D01*
X125320104Y-35629792D01*
X125320106Y-35629788D01*
X125320109Y-35629786D01*
X125429086Y-35479789D01*
X125445051Y-35457816D01*
X125449514Y-35449054D01*
X125497488Y-35398259D01*
X125565308Y-35381463D01*
X125631444Y-35403999D01*
X125670486Y-35449056D01*
X125674951Y-35457820D01*
X125799890Y-35629786D01*
X125950213Y-35780109D01*
X126122179Y-35905048D01*
X126122181Y-35905049D01*
X126122184Y-35905051D01*
X126311588Y-36001557D01*
X126513757Y-36067246D01*
X126723713Y-36100500D01*
X126723714Y-36100500D01*
X126936286Y-36100500D01*
X126936287Y-36100500D01*
X127146243Y-36067246D01*
X127348412Y-36001557D01*
X127537816Y-35905051D01*
X127709792Y-35780104D01*
X127823329Y-35666566D01*
X127884648Y-35633084D01*
X127954340Y-35638068D01*
X128010274Y-35679939D01*
X128027189Y-35710917D01*
X128076202Y-35842328D01*
X128076206Y-35842335D01*
X128162452Y-35957544D01*
X128162455Y-35957547D01*
X128277664Y-36043793D01*
X128277671Y-36043797D01*
X128412517Y-36094091D01*
X128412516Y-36094091D01*
X128419444Y-36094835D01*
X128472127Y-36100500D01*
X130267872Y-36100499D01*
X130327483Y-36094091D01*
X130462331Y-36043796D01*
X130577546Y-35957546D01*
X130663796Y-35842331D01*
X130714091Y-35707483D01*
X130720500Y-35647873D01*
X130720500Y-35393713D01*
X136149500Y-35393713D01*
X136149500Y-35606287D01*
X136157057Y-35653999D01*
X136174117Y-35761716D01*
X136182754Y-35816243D01*
X136242966Y-36001557D01*
X136248444Y-36018414D01*
X136344951Y-36207820D01*
X136469890Y-36379786D01*
X136620213Y-36530109D01*
X136792179Y-36655048D01*
X136792181Y-36655049D01*
X136792184Y-36655051D01*
X136981588Y-36751557D01*
X137183757Y-36817246D01*
X137393713Y-36850500D01*
X137393714Y-36850500D01*
X137606286Y-36850500D01*
X137606287Y-36850500D01*
X137816243Y-36817246D01*
X138018412Y-36751557D01*
X138207816Y-36655051D01*
X138229789Y-36639086D01*
X138379786Y-36530109D01*
X138379788Y-36530106D01*
X138379792Y-36530104D01*
X138530104Y-36379792D01*
X138530106Y-36379788D01*
X138530109Y-36379786D01*
X138655048Y-36207820D01*
X138655047Y-36207820D01*
X138655051Y-36207816D01*
X138751557Y-36018412D01*
X138817246Y-35816243D01*
X138850500Y-35606287D01*
X138850500Y-35393713D01*
X138817246Y-35183757D01*
X138751557Y-34981588D01*
X138655051Y-34792184D01*
X138655049Y-34792181D01*
X138655048Y-34792179D01*
X138530109Y-34620213D01*
X138379786Y-34469890D01*
X138207820Y-34344951D01*
X138018414Y-34248444D01*
X138018413Y-34248443D01*
X138018412Y-34248443D01*
X137816243Y-34182754D01*
X137816241Y-34182753D01*
X137816240Y-34182753D01*
X137654957Y-34157208D01*
X137606287Y-34149500D01*
X137393713Y-34149500D01*
X137345042Y-34157208D01*
X137183760Y-34182753D01*
X136981585Y-34248444D01*
X136792179Y-34344951D01*
X136620213Y-34469890D01*
X136469890Y-34620213D01*
X136344951Y-34792179D01*
X136248444Y-34981585D01*
X136182753Y-35183760D01*
X136155861Y-35353554D01*
X136149500Y-35393713D01*
X130720500Y-35393713D01*
X130720499Y-34750000D01*
X130720499Y-33852129D01*
X130720498Y-33852123D01*
X130719773Y-33845380D01*
X130714091Y-33792517D01*
X130712810Y-33789083D01*
X130663797Y-33657671D01*
X130663793Y-33657664D01*
X130577547Y-33542455D01*
X130577544Y-33542452D01*
X130462335Y-33456206D01*
X130462328Y-33456202D01*
X130327482Y-33405908D01*
X130327483Y-33405908D01*
X130267883Y-33399501D01*
X130267881Y-33399500D01*
X130267873Y-33399500D01*
X130267864Y-33399500D01*
X128472129Y-33399500D01*
X128472123Y-33399501D01*
X128412516Y-33405908D01*
X128277671Y-33456202D01*
X128277664Y-33456206D01*
X128162455Y-33542452D01*
X128162452Y-33542455D01*
X128076206Y-33657664D01*
X128076203Y-33657669D01*
X128027189Y-33789083D01*
X127985317Y-33845016D01*
X127919853Y-33869433D01*
X127851580Y-33854581D01*
X127823326Y-33833430D01*
X127709786Y-33719890D01*
X127537820Y-33594951D01*
X127348414Y-33498444D01*
X127348413Y-33498443D01*
X127348412Y-33498443D01*
X127146243Y-33432754D01*
X127146241Y-33432753D01*
X127146240Y-33432753D01*
X126984957Y-33407208D01*
X126936287Y-33399500D01*
X126723713Y-33399500D01*
X126675042Y-33407208D01*
X126513760Y-33432753D01*
X126311585Y-33498444D01*
X126122179Y-33594951D01*
X125950213Y-33719890D01*
X125799890Y-33870213D01*
X125674949Y-34042182D01*
X125670484Y-34050946D01*
X125622509Y-34101742D01*
X125554688Y-34118536D01*
X125488553Y-34095998D01*
X125449516Y-34050946D01*
X125445050Y-34042182D01*
X125320109Y-33870213D01*
X125169786Y-33719890D01*
X124997820Y-33594951D01*
X124808414Y-33498444D01*
X124808413Y-33498443D01*
X124808412Y-33498443D01*
X124606243Y-33432754D01*
X124606241Y-33432753D01*
X124606240Y-33432753D01*
X124444957Y-33407208D01*
X124396287Y-33399500D01*
X124183713Y-33399500D01*
X124135042Y-33407208D01*
X123973760Y-33432753D01*
X123771585Y-33498444D01*
X123582179Y-33594951D01*
X123410213Y-33719890D01*
X123259890Y-33870213D01*
X123134949Y-34042182D01*
X123130202Y-34051499D01*
X123082227Y-34102293D01*
X123014405Y-34119087D01*
X122948271Y-34096548D01*
X122909234Y-34051495D01*
X122904626Y-34042452D01*
X122865270Y-33988282D01*
X122865269Y-33988282D01*
X122232962Y-34620590D01*
X122215925Y-34557007D01*
X122150099Y-34442993D01*
X122057007Y-34349901D01*
X121942993Y-34284075D01*
X121879409Y-34267037D01*
X122511716Y-33634728D01*
X122457550Y-33595375D01*
X122268217Y-33498904D01*
X122066129Y-33433242D01*
X121856246Y-33400000D01*
X121643754Y-33400000D01*
X121433872Y-33433242D01*
X121433869Y-33433242D01*
X121231782Y-33498904D01*
X121042439Y-33595380D01*
X120988282Y-33634727D01*
X120988282Y-33634728D01*
X121620591Y-34267037D01*
X121557007Y-34284075D01*
X121442993Y-34349901D01*
X121349901Y-34442993D01*
X121284075Y-34557007D01*
X121267037Y-34620591D01*
X120634728Y-33988282D01*
X120634727Y-33988282D01*
X120595380Y-34042439D01*
X120498904Y-34231782D01*
X120433242Y-34433869D01*
X120433242Y-34433872D01*
X120400000Y-34643753D01*
X113350499Y-34643753D01*
X113350499Y-34102128D01*
X113344091Y-34042517D01*
X113342810Y-34039083D01*
X113293797Y-33907671D01*
X113293793Y-33907664D01*
X113207547Y-33792455D01*
X113207544Y-33792452D01*
X113192584Y-33781253D01*
X113092335Y-33706206D01*
X113092328Y-33706202D01*
X112957482Y-33655908D01*
X112957483Y-33655908D01*
X112897883Y-33649501D01*
X112897881Y-33649500D01*
X112897873Y-33649500D01*
X112897864Y-33649500D01*
X111102129Y-33649500D01*
X111102123Y-33649501D01*
X111042516Y-33655908D01*
X110907671Y-33706202D01*
X110907664Y-33706206D01*
X110792455Y-33792452D01*
X110792452Y-33792455D01*
X110706206Y-33907664D01*
X110706203Y-33907669D01*
X110657189Y-34039083D01*
X110615317Y-34095016D01*
X110549853Y-34119433D01*
X110481580Y-34104581D01*
X110453326Y-34083430D01*
X110339786Y-33969890D01*
X110167820Y-33844951D01*
X109978414Y-33748444D01*
X109978413Y-33748443D01*
X109978412Y-33748443D01*
X109776243Y-33682754D01*
X109776241Y-33682753D01*
X109776240Y-33682753D01*
X109612112Y-33656758D01*
X109566287Y-33649500D01*
X109353713Y-33649500D01*
X109307888Y-33656758D01*
X109143760Y-33682753D01*
X108941585Y-33748444D01*
X108752179Y-33844951D01*
X108580213Y-33969890D01*
X108429890Y-34120213D01*
X108304949Y-34292182D01*
X108300484Y-34300946D01*
X108252509Y-34351742D01*
X108184688Y-34368536D01*
X108118553Y-34345998D01*
X108079516Y-34300946D01*
X108075050Y-34292182D01*
X107950109Y-34120213D01*
X107799786Y-33969890D01*
X107627820Y-33844951D01*
X107438414Y-33748444D01*
X107438413Y-33748443D01*
X107438412Y-33748443D01*
X107236243Y-33682754D01*
X107236241Y-33682753D01*
X107236240Y-33682753D01*
X107072112Y-33656758D01*
X107026287Y-33649500D01*
X106813713Y-33649500D01*
X106767888Y-33656758D01*
X106603760Y-33682753D01*
X106401585Y-33748444D01*
X106212179Y-33844951D01*
X106040213Y-33969890D01*
X105889890Y-34120213D01*
X105764949Y-34292182D01*
X105760202Y-34301499D01*
X105712227Y-34352293D01*
X105644405Y-34369087D01*
X105578271Y-34346548D01*
X105539234Y-34301495D01*
X105534626Y-34292452D01*
X105495270Y-34238282D01*
X105495269Y-34238282D01*
X104862962Y-34870590D01*
X104845925Y-34807007D01*
X104780099Y-34692993D01*
X104687007Y-34599901D01*
X104572993Y-34534075D01*
X104509409Y-34517037D01*
X105141716Y-33884728D01*
X105087550Y-33845375D01*
X104898217Y-33748904D01*
X104696129Y-33683242D01*
X104486246Y-33650000D01*
X104273754Y-33650000D01*
X104063872Y-33683242D01*
X104063869Y-33683242D01*
X103861782Y-33748904D01*
X103672439Y-33845380D01*
X103618282Y-33884727D01*
X103618282Y-33884728D01*
X104250591Y-34517037D01*
X104187007Y-34534075D01*
X104072993Y-34599901D01*
X103979901Y-34692993D01*
X103914075Y-34807007D01*
X103897037Y-34870591D01*
X103264728Y-34238282D01*
X103264727Y-34238282D01*
X103225380Y-34292439D01*
X103128904Y-34481782D01*
X103063242Y-34683869D01*
X103063242Y-34683872D01*
X103030000Y-34893753D01*
X100206803Y-34893753D01*
X100155051Y-34792184D01*
X100155049Y-34792181D01*
X100155048Y-34792179D01*
X100030109Y-34620213D01*
X99879786Y-34469890D01*
X99707820Y-34344951D01*
X99518414Y-34248444D01*
X99518413Y-34248443D01*
X99518412Y-34248443D01*
X99316243Y-34182754D01*
X99316241Y-34182753D01*
X99316240Y-34182753D01*
X99154957Y-34157208D01*
X99106287Y-34149500D01*
X98893713Y-34149500D01*
X98845042Y-34157208D01*
X98683760Y-34182753D01*
X98481585Y-34248444D01*
X98292179Y-34344951D01*
X98120213Y-34469890D01*
X97969890Y-34620213D01*
X97844951Y-34792179D01*
X97748444Y-34981585D01*
X97682753Y-35183760D01*
X97655861Y-35353554D01*
X97649500Y-35393713D01*
X96250000Y-35393713D01*
X96250000Y-35310459D01*
X96250195Y-35303508D01*
X96252166Y-35268412D01*
X96254635Y-35224434D01*
X96255339Y-35216503D01*
X96262932Y-35153965D01*
X96263771Y-35148206D01*
X96303945Y-34911755D01*
X96305794Y-34902865D01*
X96308040Y-34893753D01*
X96319283Y-34848138D01*
X96320484Y-34843639D01*
X96388994Y-34605835D01*
X96392187Y-34596251D01*
X96407318Y-34556353D01*
X96408616Y-34553080D01*
X96508850Y-34311093D01*
X96513586Y-34300981D01*
X96520389Y-34288019D01*
X96521513Y-34285932D01*
X96658970Y-34037222D01*
X96666356Y-34025470D01*
X96837473Y-33784304D01*
X96846111Y-33773472D01*
X97043161Y-33552973D01*
X97052973Y-33543161D01*
X97273472Y-33346111D01*
X97284304Y-33337473D01*
X97525482Y-33166347D01*
X97537222Y-33158970D01*
X97785932Y-33021513D01*
X97788019Y-33020389D01*
X97800981Y-33013586D01*
X97811093Y-33008850D01*
X98053080Y-32908616D01*
X98056353Y-32907318D01*
X98096251Y-32892187D01*
X98105835Y-32888994D01*
X98343639Y-32820484D01*
X98348138Y-32819283D01*
X98402871Y-32805792D01*
X98411755Y-32803945D01*
X98648213Y-32763770D01*
X98653956Y-32762933D01*
X98716506Y-32755338D01*
X98724434Y-32754635D01*
X98796982Y-32750561D01*
X98803510Y-32750195D01*
X98810461Y-32750000D01*
X137686677Y-32750000D01*
X137693730Y-32750200D01*
G37*
%TD.AperFunction*%
%TD*%
M02*
