%TF.GenerationSoftware,KiCad,Pcbnew,10.0.5*%
%TF.CreationDate,2026-09-30T18:34:07+09:30*%
%TF.ProjectId,stm32 PCB design,73746d33-3220-4504-9342-206465736967,rev?*%
%TF.SameCoordinates,Original*%
%TF.FileFunction,Paste,Top*%
%TF.FilePolarity,Positive*%
%FSLAX46Y46*%
G04 Gerber Fmt 4.6, Leading zero omitted, Abs format (unit mm)*
G04 Created by KiCad (PCBNEW 10.0.5) date 2026-09-30 18:34:07*
%MOMM*%
%LPD*%
G01*
G04 APERTURE LIST*
G04 Aperture macros list*
%AMRoundRect*
0 Rectangle with rounded corners*
0 $1 Rounding radius*
0 $2 $3 $4 $5 $6 $7 $8 $9 X,Y pos of 4 corners*
0 Add a 4 corners polygon primitive as box body*
4,1,4,$2,$3,$4,$5,$6,$7,$8,$9,$2,$3,0*
0 Add four circle primitives for the rounded corners*
1,1,$1+$1,$2,$3*
1,1,$1+$1,$4,$5*
1,1,$1+$1,$6,$7*
1,1,$1+$1,$8,$9*
0 Add four rect primitives between the rounded corners*
20,1,$1+$1,$2,$3,$4,$5,0*
20,1,$1+$1,$4,$5,$6,$7,0*
20,1,$1+$1,$6,$7,$8,$9,0*
20,1,$1+$1,$8,$9,$2,$3,0*%
G04 Aperture macros list end*
%ADD10RoundRect,0.218750X-0.256250X0.218750X-0.256250X-0.218750X0.256250X-0.218750X0.256250X0.218750X0*%
%ADD11RoundRect,0.375000X-0.375000X0.625000X-0.375000X-0.625000X0.375000X-0.625000X0.375000X0.625000X0*%
%ADD12RoundRect,0.500000X-1.400000X0.500000X-1.400000X-0.500000X1.400000X-0.500000X1.400000X0.500000X0*%
%ADD13R,0.800000X1.000000*%
%ADD14R,1.500000X0.700000*%
%ADD15RoundRect,0.067500X0.067500X-0.067500X0.067500X0.067500X-0.067500X0.067500X-0.067500X-0.067500X0*%
%ADD16RoundRect,0.250000X-0.250000X-0.475000X0.250000X-0.475000X0.250000X0.475000X-0.250000X0.475000X0*%
%ADD17RoundRect,0.250000X0.475000X-0.250000X0.475000X0.250000X-0.475000X0.250000X-0.475000X-0.250000X0*%
%ADD18RoundRect,0.075000X-0.662500X-0.075000X0.662500X-0.075000X0.662500X0.075000X-0.662500X0.075000X0*%
%ADD19RoundRect,0.075000X-0.075000X-0.662500X0.075000X-0.662500X0.075000X0.662500X-0.075000X0.662500X0*%
%ADD20RoundRect,0.225000X-0.225000X-0.250000X0.225000X-0.250000X0.225000X0.250000X-0.225000X0.250000X0*%
%ADD21RoundRect,0.135000X-0.185000X0.135000X-0.185000X-0.135000X0.185000X-0.135000X0.185000X0.135000X0*%
%ADD22RoundRect,0.067500X-0.067500X-0.067500X0.067500X-0.067500X0.067500X0.067500X-0.067500X0.067500X0*%
%ADD23RoundRect,0.067500X0.067500X0.067500X-0.067500X0.067500X-0.067500X-0.067500X0.067500X-0.067500X0*%
%ADD24RoundRect,0.112500X0.537500X-0.112500X0.537500X0.112500X-0.537500X0.112500X-0.537500X-0.112500X0*%
%ADD25RoundRect,0.237500X-0.237500X0.287500X-0.237500X-0.287500X0.237500X-0.287500X0.237500X0.287500X0*%
%ADD26RoundRect,0.135000X-0.135000X-0.185000X0.135000X-0.185000X0.135000X0.185000X-0.135000X0.185000X0*%
%ADD27RoundRect,0.135000X0.185000X-0.135000X0.185000X0.135000X-0.185000X0.135000X-0.185000X-0.135000X0*%
%ADD28RoundRect,0.135000X0.135000X0.185000X-0.135000X0.185000X-0.135000X-0.185000X0.135000X-0.185000X0*%
%ADD29RoundRect,0.067500X-0.067500X0.067500X-0.067500X-0.067500X0.067500X-0.067500X0.067500X0.067500X0*%
%ADD30RoundRect,0.250000X-0.350000X0.450000X-0.350000X-0.450000X0.350000X-0.450000X0.350000X0.450000X0*%
G04 APERTURE END LIST*
D10*
%TO.C,FB1*%
X106550000Y-53250000D03*
X106550000Y-54825000D03*
%TD*%
D11*
%TO.C,U2*%
X124050000Y-55700000D03*
X121750000Y-55700000D03*
D12*
X121750000Y-62000000D03*
D11*
X119450000Y-55700000D03*
%TD*%
D13*
%TO.C,SW2*%
X99100000Y-39350000D03*
X96890000Y-39350000D03*
X99100000Y-46650000D03*
X96890000Y-46650000D03*
D14*
X99750000Y-40750000D03*
X99750000Y-43750000D03*
X99750000Y-45250000D03*
%TD*%
D15*
%TO.C,C12*%
X105250000Y-48550000D03*
X105250000Y-48000000D03*
%TD*%
D16*
%TO.C,C1*%
X120850000Y-52750000D03*
X122750000Y-52750000D03*
%TD*%
D17*
%TO.C,C2*%
X128750000Y-60450000D03*
X128750000Y-58550000D03*
%TD*%
D18*
%TO.C,U1*%
X108337500Y-46250000D03*
X108337500Y-46750000D03*
X108337500Y-47250000D03*
X108337500Y-47750000D03*
X108337500Y-48250000D03*
X108337500Y-48750000D03*
X108337500Y-49250000D03*
X108337500Y-49750000D03*
X108337500Y-50250000D03*
X108337500Y-50750000D03*
X108337500Y-51250000D03*
X108337500Y-51750000D03*
D19*
X109750000Y-53162500D03*
X110250000Y-53162500D03*
X110750000Y-53162500D03*
X111250000Y-53162500D03*
X111750000Y-53162500D03*
X112250000Y-53162500D03*
X112750000Y-53162500D03*
X113250000Y-53162500D03*
X113750000Y-53162500D03*
X114250000Y-53162500D03*
X114750000Y-53162500D03*
X115250000Y-53162500D03*
D18*
X116662500Y-51750000D03*
X116662500Y-51250000D03*
X116662500Y-50750000D03*
X116662500Y-50250000D03*
X116662500Y-49750000D03*
X116662500Y-49250000D03*
X116662500Y-48750000D03*
X116662500Y-48250000D03*
X116662500Y-47750000D03*
X116662500Y-47250000D03*
X116662500Y-46750000D03*
X116662500Y-46250000D03*
D19*
X115250000Y-44837500D03*
X114750000Y-44837500D03*
X114250000Y-44837500D03*
X113750000Y-44837500D03*
X113250000Y-44837500D03*
X112750000Y-44837500D03*
X112250000Y-44837500D03*
X111750000Y-44837500D03*
X111250000Y-44837500D03*
X110750000Y-44837500D03*
X110250000Y-44837500D03*
X109750000Y-44837500D03*
%TD*%
D20*
%TO.C,C3*%
X109200000Y-41500000D03*
X110750000Y-41500000D03*
%TD*%
D21*
%TO.C,R3*%
X123000000Y-46500000D03*
X123000000Y-47520000D03*
%TD*%
D22*
%TO.C,C11*%
X110250000Y-55500000D03*
X110800000Y-55500000D03*
%TD*%
D15*
%TO.C,C13*%
X105250000Y-50975000D03*
X105250000Y-50425000D03*
%TD*%
%TO.C,C4*%
X106500000Y-46050000D03*
X106500000Y-45500000D03*
%TD*%
D23*
%TO.C,C10*%
X105275000Y-54750000D03*
X104725000Y-54750000D03*
%TD*%
D24*
%TO.C,J1*%
X134650000Y-49305000D03*
X134650000Y-48655000D03*
X134650000Y-48005000D03*
X134650000Y-47355000D03*
X134650000Y-46705000D03*
%TD*%
D23*
%TO.C,C9*%
X105275000Y-53000000D03*
X104725000Y-53000000D03*
%TD*%
D21*
%TO.C,R2*%
X104250000Y-41730000D03*
X104250000Y-42750000D03*
%TD*%
D25*
%TO.C,D1*%
X131750000Y-58575000D03*
X131750000Y-60325000D03*
%TD*%
D22*
%TO.C,C7*%
X109500000Y-43000000D03*
X110050000Y-43000000D03*
%TD*%
D26*
%TO.C,R5*%
X113500000Y-58000000D03*
X114520000Y-58000000D03*
%TD*%
D27*
%TO.C,R1*%
X131750000Y-56720000D03*
X131750000Y-55700000D03*
%TD*%
D28*
%TO.C,R4*%
X111770000Y-58000000D03*
X110750000Y-58000000D03*
%TD*%
D15*
%TO.C,C8*%
X106500000Y-51000000D03*
X106500000Y-50450000D03*
%TD*%
D29*
%TO.C,C6*%
X119000000Y-46225000D03*
X119000000Y-46775000D03*
%TD*%
D23*
%TO.C,C5*%
X115250000Y-54750000D03*
X114700000Y-54750000D03*
%TD*%
D30*
%TO.C,Y1*%
X102000000Y-48500000D03*
X102000000Y-50700000D03*
X103700000Y-50700000D03*
X103700000Y-48500000D03*
%TD*%
M02*
